<svg id="Camada_1" data-name="Camada 1" xmlns="http://www.w3.org/2000/svg" viewBox="0 0 498 70"><defs><style>.cls-1{fill:#353535;}.cls-2{fill:#464646;}</style></defs><title>Prancheta 1</title><path class="cls-1" d="M58.56,10.29c-.16.11-.21.08-.16-.08s0-.21-.08-.16a.32.32,0,0,0-.16.32.32.32,0,0,1-.16.32,1,1,0,0,0-.72-.32,3.92,3.92,0,0,0-.52-.56l-.6-.48A6.84,6.84,0,0,1,56,7.65q0-.88,0-1.76a4,4,0,0,0-2.44,1,10.07,10.07,0,0,1-2,1.44q-3.2,3.28-6.23,6.67a82.88,82.88,0,0,0-5.71,7.15A74.16,74.16,0,0,0,34.83,30,62.11,62.11,0,0,0,30.91,39q-.24,1.28-.52,2.56T30,44.16A2.54,2.54,0,0,1,30,45.28a5.09,5.09,0,0,0,0,1.28,6.55,6.55,0,0,0,2,3.92A16.23,16.23,0,0,0,35.55,53a14,14,0,0,0,5.51.32,18.19,18.19,0,0,0,4.75-1.4,22.25,22.25,0,0,0,4-2.36q1.84-1.36,3.36-2.56a10.83,10.83,0,0,0,1.32-1.4A3.94,3.94,0,0,1,56,44.4a16.24,16.24,0,0,1,2-2.64l2.24-2.4a7.44,7.44,0,0,1,.8-1.6l1-1.44a10.55,10.55,0,0,0,.84-1.52,7.18,7.18,0,0,0,.52-1.92,2.67,2.67,0,0,1,.4-.32q.24-.16-.16-.24a.32.32,0,0,1,.4,0c.16.08.19.23.08.44l.44-.16a4.29,4.29,0,0,1,.52-.16q.08.4.12.84c0,.29.12.44.28.44a4.7,4.7,0,0,1-.12,2,8.06,8.06,0,0,1-.72,1.68q-.44.76-1,1.48a5,5,0,0,0-.76,1.52c-.11,0-.16,0-.16-.08s-.05,0-.16.08a.52.52,0,0,1-.16.44q-.16.12-.08.52-.88.88-1.76,1.88A17.54,17.54,0,0,0,59,45.36,13.49,13.49,0,0,0,56.12,48a15.49,15.49,0,0,1-2.84,2.76c-.11.05-.19,0-.24,0a.27.27,0,0,0-.24-.12,7.81,7.81,0,0,1-2.52,2,32.57,32.57,0,0,0-2.84,1.64.49.49,0,0,0-.28.08c-.08.05-.17,0-.28-.08a3.11,3.11,0,0,1-1.12.72,7.47,7.47,0,0,1-1.32.36l-1.4.24a3.81,3.81,0,0,0-1.28.44,15,15,0,0,1-7.35-1A14.78,14.78,0,0,1,29,51.35a10.27,10.27,0,0,1-1.84-4.67,18.3,18.3,0,0,1,.08-5.11,31.12,31.12,0,0,1,1.24-5.11q.84-2.52,1.72-4.67a117.33,117.33,0,0,1,9.75-15.34A75.94,75.94,0,0,1,52.25,3.57a1.49,1.49,0,0,0,1-.56,4.92,4.92,0,0,1,2.84-.12,3.89,3.89,0,0,1,2.12,1.24q.24,1.36.4,2.84A14.07,14.07,0,0,1,58.56,10.29Z"/><path class="cls-1" d="M70.14,26.35a.56.56,0,0,1,.48,0,.8.8,0,0,0,.48.12,1.74,1.74,0,0,1,1.92-.4,8.64,8.64,0,0,1,1.84,1,2.32,2.32,0,0,0,.36.64,1.26,1.26,0,0,1,.2.8,10.13,10.13,0,0,1,1.48,1.68,5.61,5.61,0,0,1,.92,2.08,5.48,5.48,0,0,1-.48,2.56,7.62,7.62,0,0,1-1.48,2.24,6.87,6.87,0,0,1-2.16,1.52,4.82,4.82,0,0,1-2.6.4,3,3,0,0,1-1.64-.72q-.6-.56-1.32-1.12a4.7,4.7,0,0,0-.56-1.44,10.78,10.78,0,0,1,.64-4.47,18.22,18.22,0,0,1,1.84-3.28A5.15,5.15,0,0,1,70.14,26.35Zm2.48,9.59q.88-.88,1.76-1.8a3.15,3.15,0,0,0,.72-2.6,10.28,10.28,0,0,1-.88-1.4,1.88,1.88,0,0,0-1.52-.92q-.48.72-1,1.6a12.44,12.44,0,0,0-.88,1.8,9.56,9.56,0,0,0-.52,1.84,3.78,3.78,0,0,0,.16,1.88,2,2,0,0,0,1.08-.12A3.77,3.77,0,0,1,72.62,35.93Z"/><path class="cls-1" d="M92.51,26.43a1.28,1.28,0,0,1-.84,0,3.5,3.5,0,0,0-.92-.12,1.92,1.92,0,0,0-.52.2,1.9,1.9,0,0,1-.52.2,17.33,17.33,0,0,0-4.47,5.67,42,42,0,0,0-2.8,7.27A1,1,0,0,0,82,40a.67.67,0,0,1-.44.28,2.67,2.67,0,0,1-1-.48,5,5,0,0,0-.88-.56,24.58,24.58,0,0,1,.12-5.43q.36-2.64.76-5.27a10.15,10.15,0,0,1-.24-1.48,3.33,3.33,0,0,1,.08-1.32,4.38,4.38,0,0,0,.6-.28,1.94,1.94,0,0,1,.6-.2,1.51,1.51,0,0,1,1.36.72,3.06,3.06,0,0,1,.28,1.52A11.83,11.83,0,0,1,83,29.38a8.64,8.64,0,0,0-.2,1.76,23.52,23.52,0,0,0,1.52-2.24,15.06,15.06,0,0,1,1.64-2.24A7.59,7.59,0,0,1,88,25a6,6,0,0,1,2.88-.64,3.68,3.68,0,0,0,1.36.72,1.29,1.29,0,0,1,.32.72C92.65,26.11,92.62,26.32,92.51,26.43Z"/><path class="cls-1" d="M102.9,26.43a1.28,1.28,0,0,1-.84,0,3.5,3.5,0,0,0-.92-.12,1.92,1.92,0,0,0-.52.2,1.9,1.9,0,0,1-.52.2,17.33,17.33,0,0,0-4.47,5.67,42,42,0,0,0-2.8,7.27,1,1,0,0,0-.44.36.67.67,0,0,1-.44.28,2.67,2.67,0,0,1-1-.48,5,5,0,0,0-.88-.56,24.58,24.58,0,0,1,.12-5.43q.36-2.64.76-5.27a10.15,10.15,0,0,1-.24-1.48,3.33,3.33,0,0,1,.08-1.32,4.38,4.38,0,0,0,.6-.28,1.94,1.94,0,0,1,.6-.2,1.51,1.51,0,0,1,1.36.72,3.06,3.06,0,0,1,.28,1.52,11.83,11.83,0,0,1-.24,1.84,8.64,8.64,0,0,0-.2,1.76,23.52,23.52,0,0,0,1.52-2.24,15.06,15.06,0,0,1,1.64-2.24A7.59,7.59,0,0,1,98.43,25a6,6,0,0,1,2.88-.64,3.68,3.68,0,0,0,1.36.72,1.29,1.29,0,0,1,.32.72C103,26.11,103,26.32,102.9,26.43Z"/><path class="cls-1" d="M100.34,31.54c0,.11,0,.16,0,.16s0,0,0,.08q.24-.24-.08-.24,0-.64.4-.48a4,4,0,0,1,.8-2.16,9.37,9.37,0,0,0,1.2-2.16h.32a3.76,3.76,0,0,1,1.12-1.44,15.48,15.48,0,0,1,1.52-1,17.89,17.89,0,0,0,2.08.2,1.87,1.87,0,0,1,1.52.68,1.17,1.17,0,0,1,.2,1,3,3,0,0,0,0,1.08,4.58,4.58,0,0,1,1.44.72q-.16,1.36-.24,2.84a11.91,11.91,0,0,1-.4,2.6,7.48,7.48,0,0,1,.16,2.64,4.39,4.39,0,0,0,.56,2.64,2,2,0,0,1,.72.12,4.3,4.3,0,0,0,.88.2c-.05.16,0,.27.08.32a.32.32,0,0,1,.16.32.75.75,0,0,1-.56.4.75.75,0,0,0-.56.4,3.58,3.58,0,0,1-2-.36,3.83,3.83,0,0,1-1.36-1.16,4.9,4.9,0,0,1-.76-1.6,6.35,6.35,0,0,1-.24-1.68,1.56,1.56,0,0,0-.36.56.85.85,0,0,1-.44.48,12.5,12.5,0,0,1-1.68,3A3.67,3.67,0,0,1,101.78,41q-.72-.16-1.28-.32a4.74,4.74,0,0,1-1.2-.56,1,1,0,0,0-.24-.4,2.66,2.66,0,0,1-.32-.4,3.12,3.12,0,0,0,0-1.32,1,1,0,0,1,.44-1.08.27.27,0,0,0-.2-.08c-.08,0-.15-.05-.2-.16a1,1,0,0,1,.16-.4c.05-.05,0-.16-.08-.32h.32q-.16-.32,0-.48a3.2,3.2,0,0,1,.28-.32q.16-.16-.12-.12t0-.12c0-.21,0-.27,0-.16s.07.16.12.16.15-.05.12-.16a.2.2,0,0,1,.12-.24.36.36,0,0,1-.16-.44.49.49,0,0,1,.32-.36c.05-.16,0-.25-.08-.28s-.13-.09-.08-.2.17,0,.2.08.09,0,.2-.08a3.85,3.85,0,0,0,0-.92,1.77,1.77,0,0,1,.12-.76Zm-.72,2c.05-.16.08-.15.08,0S99.68,33.75,99.63,33.54Zm2.48,5q.88-1.36,1.64-2.68t1.4-2.68c.11,0,.16,0,.16,0s.05,0,.16,0a1.34,1.34,0,0,1,.16-1.12c.21-.32.4-.61.56-.88a3.29,3.29,0,0,0,.32.48.8.8,0,0,0-.12-.48,2,2,0,0,1-.2-.32,6.49,6.49,0,0,0,.8-1.4,9.79,9.79,0,0,0,.48-1.4,1.69,1.69,0,0,0-.6,0,.84.84,0,0,1-.52-.12,3.6,3.6,0,0,1,0-.52c0-.19-.07-.31-.28-.36a23.79,23.79,0,0,0-1.52,2.44,27.1,27.1,0,0,0-1.32,2.8,17,17,0,0,0-.92,3.08A12.49,12.49,0,0,0,102.1,38.57Zm3.52-6.15v.16c.11.11.17.08.2-.08s0-.21-.12-.16A.07.07,0,0,1,105.62,32.42Z"/><path class="cls-1" d="M115.6,41.13c-.21-.05-.25-.12-.12-.2a.34.34,0,0,0,.2-.28c0-.11-.08-.13-.24-.08s-.27,0-.32-.08a23.59,23.59,0,0,0,2.4-2.64,4.7,4.7,0,0,0,1-3.6.37.37,0,0,0,.2-.2.76.76,0,0,1,.2-.28,1.75,1.75,0,0,1,1.92.84,3.12,3.12,0,0,1,.4,2,4.66,4.66,0,0,1-1.68,2.8,10.72,10.72,0,0,1-2.72,1.68,2,2,0,0,0-.6-.12A.75.75,0,0,0,115.6,41.13Z"/><path class="cls-1" d="M138.29,31.54c0,.11,0,.16,0,.16s0,0,0,.08q.24-.24-.08-.24,0-.64.4-.48a4,4,0,0,1,.8-2.16,9.41,9.41,0,0,0,1.2-2.16H141a3.76,3.76,0,0,1,1.12-1.44,15.38,15.38,0,0,1,1.52-1,17.88,17.88,0,0,0,2.08.2,1.88,1.88,0,0,1,1.52.68,1.16,1.16,0,0,1,.2,1,3,3,0,0,0,0,1.08,4.57,4.57,0,0,1,1.44.72q-.16,1.36-.24,2.84a11.85,11.85,0,0,1-.4,2.6,7.43,7.43,0,0,1,.16,2.64,4.39,4.39,0,0,0,.56,2.64,2,2,0,0,1,.72.12,4.32,4.32,0,0,0,.88.2c-.05.16,0,.27.08.32a.32.32,0,0,1,.16.32.75.75,0,0,1-.56.4.75.75,0,0,0-.56.4,3.58,3.58,0,0,1-2-.36,3.83,3.83,0,0,1-1.36-1.16,4.86,4.86,0,0,1-.76-1.6,6.36,6.36,0,0,1-.24-1.68,1.56,1.56,0,0,0-.36.56.86.86,0,0,1-.44.48,12.5,12.5,0,0,1-1.68,3A3.68,3.68,0,0,1,139.73,41q-.72-.16-1.28-.32a4.74,4.74,0,0,1-1.2-.56,1,1,0,0,0-.24-.4,2.72,2.72,0,0,1-.32-.4,3.12,3.12,0,0,0,0-1.32,1,1,0,0,1,.44-1.08.27.27,0,0,0-.2-.08c-.08,0-.15-.05-.2-.16a1,1,0,0,1,.16-.4c.05-.05,0-.16-.08-.32h.32q-.16-.32,0-.48a3.31,3.31,0,0,1,.28-.32q.16-.16-.12-.12t0-.12c0-.21,0-.27,0-.16s.07.16.12.16.15-.05.12-.16a.2.2,0,0,1,.12-.24.36.36,0,0,1-.16-.44.49.49,0,0,1,.32-.36c.05-.16,0-.25-.08-.28s-.13-.09-.08-.2.17,0,.2.08.09,0,.2-.08a3.85,3.85,0,0,0,0-.92,1.78,1.78,0,0,1,.12-.76Zm-.72,2c.05-.16.08-.15.08,0S137.63,33.75,137.58,33.54Zm2.48,5q.88-1.36,1.64-2.68t1.4-2.68c.11,0,.16,0,.16,0s.05,0,.16,0a1.35,1.35,0,0,1,.16-1.12c.21-.32.4-.61.56-.88a3.23,3.23,0,0,0,.32.48.8.8,0,0,0-.12-.48,2,2,0,0,1-.2-.32,6.57,6.57,0,0,0,.8-1.4,9.92,9.92,0,0,0,.48-1.4,1.69,1.69,0,0,0-.6,0,.84.84,0,0,1-.52-.12,3.6,3.6,0,0,1,0-.52c0-.19-.07-.31-.28-.36a23.79,23.79,0,0,0-1.52,2.44,27.31,27.31,0,0,0-1.32,2.8,17,17,0,0,0-.92,3.08A12.45,12.45,0,0,0,140.05,38.57Zm3.52-6.15v.16c.11.11.17.08.2-.08s0-.21-.12-.16A.07.07,0,0,1,143.57,32.42Z"/><path class="cls-1" d="M151.8,33l.08.08C152,33,152,33,151.8,33a2.47,2.47,0,0,1,.24-.84.75.75,0,0,0,0-.68.66.66,0,0,1,.48-.16.86.86,0,0,0-.24-.64,10.65,10.65,0,0,0,.88-2.8,16.35,16.35,0,0,1,.8-3c.21.05.36,0,.44,0a.38.38,0,0,1,.28-.12,1.27,1.27,0,0,0,1,.64.94.94,0,0,1,.88.8.61.61,0,0,1-.24.68q-.32.2-.16.84a3.09,3.09,0,0,0-.6,1.36q-.12.72-.2,1.52t-.2,1.6a4.46,4.46,0,0,1-.52,1.52,10.24,10.24,0,0,0,2-3.28,10.94,10.94,0,0,1,1.8-3.2c0-.27,0-.4-.08-.4a6.68,6.68,0,0,0,1.12-2,3.33,3.33,0,0,1,1.44-1.76,3.92,3.92,0,0,1,1.48.56l1.24.8a14.08,14.08,0,0,1,0,3l-.32,2.76q-.16,1.36-.28,2.88a16.24,16.24,0,0,0,.12,3.36q.24.4.48.84a1.74,1.74,0,0,0,.64.68h.56a.54.54,0,0,0,.4-.16.45.45,0,0,1,.52.44.66.66,0,0,0,.44.6.21.21,0,0,1-.24.24.9.9,0,0,0-.4.08,1.68,1.68,0,0,1-1.2.56,2.83,2.83,0,0,1-1.28-.32,6.88,6.88,0,0,1-1.2-.76,10.52,10.52,0,0,1-1-.84,13.78,13.78,0,0,1-.72-2.6,4.24,4.24,0,0,1,.24-2.76,1.06,1.06,0,0,1-.2-.76q0-.44.12-.88t.12-.84a1,1,0,0,0-.2-.72,1.92,1.92,0,0,1,.24-.48.67.67,0,0,0,0-.64q-.64,1.28-1.28,2.64a21.27,21.27,0,0,0-1.12,3,4.05,4.05,0,0,0-.88,1.32,4.09,4.09,0,0,1-.88,1.32,1.15,1.15,0,0,1-.4,1,1.25,1.25,0,0,0-.4,1,6.71,6.71,0,0,0-.84,1.24,5,5,0,0,1-.88,1.2,3.54,3.54,0,0,1-1.24.8,3.22,3.22,0,0,1-1.84,0,2.75,2.75,0,0,1-.52-.72c-.13-.27-.28-.53-.44-.8q.4-1.76.92-3.64T151.8,33Zm1.44-5c.16.11.24.07.24-.12s-.08-.23-.24-.12Zm7,1.68-.24.24c-.11,0-.12-.05,0-.16A.21.21,0,0,1,160.19,29.62Z"/><path class="cls-1" d="M172.25,12.12q1.68-.16,3.75-.44a31.47,31.47,0,0,1,4.19-.28,22.53,22.53,0,0,1,4.08.36,7.79,7.79,0,0,1,3.48,1.56.65.65,0,0,1,.08.52.46.46,0,0,0,.08.44q-1.12-.16-3-.52a15.61,15.61,0,0,0-3.64-.28q-2.48.4-4.79.68a28.19,28.19,0,0,0-4.71,1q-.88,4.31-1.48,8.71t-1.24,8.79q-.08,2.4-.32,5.07a43.29,43.29,0,0,0-.16,5.23v2.92a26.15,26.15,0,0,0,.16,2.92,11.19,11.19,0,0,0,.64,2.72,6.21,6.21,0,0,0,1.44,2.24.53.53,0,0,0,.68-.24.41.41,0,0,1,.68-.08,1.57,1.57,0,0,1,0,1,2.36,2.36,0,0,1-.52.88c-.59.11-1,.17-1.36.2a5.61,5.61,0,0,1-1.36-.12,6.15,6.15,0,0,1-2.12-2.68,13.71,13.71,0,0,1-.92-3.6,33,33,0,0,1-.24-4q0-2-.08-3.79.32-6.15.92-12.46a118.42,118.42,0,0,1,2-12.86,33.18,33.18,0,0,0-4.79,1.32q-2.64.92-5.35,2-.64.24-1.4.48a2.76,2.76,0,0,1-1.24.16,2.24,2.24,0,0,1-1.2-.72,1.42,1.42,0,0,1-.48-1.36,8.39,8.39,0,0,1,2.36-1.12l2.6-.8a8.76,8.76,0,0,1,2.56-.84,7.75,7.75,0,0,0,2.48-.84,11.17,11.17,0,0,0,2.48-.56,15.27,15.27,0,0,1,2.48-.64,7.93,7.93,0,0,0,.4-2.2,18.4,18.4,0,0,1,.32-2.52,5.67,5.67,0,0,1,.76-2,1.83,1.83,0,0,1,1.8-.72,1.67,1.67,0,0,1,1,1.2,4,4,0,0,1,0,1.68q-.2.88-.48,1.84A9.62,9.62,0,0,0,172.25,12.12Z"/><path class="cls-1" d="M174.81,34.42a3,3,0,0,0,.36,1.76,3.15,3.15,0,0,0,1.08,1.2,3.2,3.2,0,0,0,1.44-.28,4.39,4.39,0,0,0,1-.68,7.1,7.1,0,0,0,.84-.92,5.74,5.74,0,0,1,.88-.92,3.16,3.16,0,0,1,1.28.48,6.11,6.11,0,0,1-1.08,2.68,3.79,3.79,0,0,1-2.44,1.48,5.31,5.31,0,0,1-3.83-.84,6,6,0,0,1-2.08-2.92,11.52,11.52,0,0,1,1.28-6.51,14.87,14.87,0,0,1,3.92-4.51,4.2,4.2,0,0,1,3-.2,2.8,2.8,0,0,1,2,1.72.38.38,0,0,1-.12.28c-.08.08-.07.12,0,.12a18.36,18.36,0,0,1-6.55,8,1.18,1.18,0,0,0-.44.08A.84.84,0,0,1,174.81,34.42Zm.48-2.88a20.13,20.13,0,0,0,4.47-5.35,4.11,4.11,0,0,0-2.72,2Q176.08,29.86,175.28,31.54Z"/><path class="cls-1" d="M198.22,24.27a1.13,1.13,0,0,1-.76-.08,2.17,2.17,0,0,1-.48-.36q-.2-.2-.44-.4a1,1,0,0,0-.64-.2,41.8,41.8,0,0,0-5.23,3.36,15.45,15.45,0,0,0-4,4.55c-.05.11-.05.16,0,.16a.07.07,0,0,1,.08.08,20.8,20.8,0,0,0,4.2.84,9.19,9.19,0,0,1,4,1.32.68.68,0,0,0,.56-.36c.16-.24.32-.23.48,0a5.35,5.35,0,0,0,.32-.56c.11-.21.29-.24.56-.08l.16-.32a.73.73,0,0,0,.08-.32.52.52,0,0,0,.52,0,.92.92,0,0,0,.32-.32,1.63,1.63,0,0,1,.24-.32.49.49,0,0,1,.36-.12,8,8,0,0,1,.48-.8c.16.05.2.11.12.16s-.07.13,0,.24a8,8,0,0,1,1.4-1.12,4.64,4.64,0,0,0,1.32-1.28,1.58,1.58,0,0,0,.72-.16,4.21,4.21,0,0,0,.64-.4,3.53,3.53,0,0,1,.68-.4,1.46,1.46,0,0,1,.84-.08,1.7,1.7,0,0,1-.36,1.24,1.55,1.55,0,0,1-.84.68c-.11.11-.12.19,0,.24s.09.16,0,.32q-1.52,1.44-3.16,2.72a33.38,33.38,0,0,0-3.08,2.72,5.91,5.91,0,0,1,.72,2.8,4.68,4.68,0,0,1-.76,2.2L196,42a4.7,4.7,0,0,0-1.36,1.2l-2.16,1.08a3.77,3.77,0,0,1-2.64.12,1.28,1.28,0,0,0-.32-.24.57.57,0,0,1-.24-.4,1.37,1.37,0,0,1-1-.8q-.2-.56-.44-1.28a4.12,4.12,0,0,1,.56-1.84,10.15,10.15,0,0,1,1.08-1.48q.6-.68,1.2-1.24a6,6,0,0,0,1-1.2,1.6,1.6,0,0,1,.56-.48,1.22,1.22,0,0,0,.48-.4,13.11,13.11,0,0,0-1.88-.52,10,10,0,0,0-2-.2,12.74,12.74,0,0,1-2.44-.76,6,6,0,0,1-2.12-1.48,1.28,1.28,0,0,0-.56-1,2.31,2.31,0,0,1,0-1.4,3.78,3.78,0,0,1,.56-1.08,8.71,8.71,0,0,1,.8-.92,3.56,3.56,0,0,0,.68-.92q1.2-.88,2.72-2.24a25.57,25.57,0,0,1,3.12-2.4A23.74,23.74,0,0,1,193.9,21a3.58,3.58,0,0,1,2.88.2,2.75,2.75,0,0,0,.56.56c.21.16.43.33.64.52a1.78,1.78,0,0,1,.48.68,1.47,1.47,0,0,1,0,1c-.11,0-.16,0-.16.12A.27.27,0,0,1,198.22,24.27Zm-3.68,13.18a23.37,23.37,0,0,1-2,2,6.51,6.51,0,0,0-1.72,2.36A6.91,6.91,0,0,0,193.3,40a9.76,9.76,0,0,0,1.64-2.56Z"/><path class="cls-1" d="M227.54,25.71a4.41,4.41,0,0,1,2,.28q.88.36.56,1.48c.05.16,0,.23-.12.2a.23.23,0,0,0-.28.12q-1,2.72-1.92,5.11a22.42,22.42,0,0,0-1.36,5.27c-.05.16-.11.31-.16.44s-.11.25-.16.36a24.81,24.81,0,0,0,3.28-2.88,27.91,27.91,0,0,1,3.2-2.88q1.6-1.44,3.2-3t3.12-2.88q.24.08.12.36a.67.67,0,0,1-.28.36c-.05.16,0,.27.12.32s.15.13,0,.24h-.4a.47.47,0,0,1-.24.72,1.21,1.21,0,0,0-.64.72q.48.16.48-.24c0-.27.13-.37.4-.32A2.94,2.94,0,0,1,237.37,31a2.19,2.19,0,0,0-1,1.44c-.27-.05-.43,0-.48.2a1.86,1.86,0,0,1-.24.52c-.11.05-.16,0-.16-.08a.14.14,0,0,0-.16-.16q.08.4-.08.48c-.11.05-.16.19-.16.4q-1.6,1.68-3.32,3.2a25.12,25.12,0,0,0-3.16,3.36,4.11,4.11,0,0,0-1.48,1.12,8.48,8.48,0,0,1-1.32,1.28.54.54,0,0,1-.12.56,1.77,1.77,0,0,0-.36.4,5.57,5.57,0,0,1-.2,1.56A6.18,6.18,0,0,0,225,47a11.14,11.14,0,0,1,4,1.44,15.11,15.11,0,0,1,3,2.48A4.79,4.79,0,0,0,233.29,53q.32,1.12.64,2.2t.56,2c0,.16-.05.25-.16.28s-.13.12-.08.28q0,.48.24.48-.16.64-.36,1.28t-.36,1.28a24.41,24.41,0,0,1-2.12,3,8.08,8.08,0,0,1-2.92,2.2,6,6,0,0,1-5-1.16,6.27,6.27,0,0,1-2.08-4.67,11.35,11.35,0,0,1-.28-4,33.07,33.07,0,0,0,.12-4.23,5.88,5.88,0,0,0,.2-1.28q0-.72,0-1.44a23.39,23.39,0,0,1-2.64.36A2,2,0,0,1,217,48.4a3.7,3.7,0,0,1,.16-.6,1,1,0,0,0,.08-.36,12.39,12.39,0,0,1,2.64-2.76,36.63,36.63,0,0,0,2.88-2.44,20.79,20.79,0,0,1,.44-2.6,21.16,21.16,0,0,0,.44-2.6,3.49,3.49,0,0,1-1.2,1.12,4.4,4.4,0,0,1-1.68.6,3.75,3.75,0,0,1-1.72-.16,2.38,2.38,0,0,1-1.32-1.08,1.62,1.62,0,0,0-.32-.88v-2a3.06,3.06,0,0,0,.32-1.52,20,20,0,0,1,1.08-3q.68-1.52,1.4-2.8.48-.8.92-1.68a7.25,7.25,0,0,1,1.08-1.6,5,5,0,0,1,1.52-1.16,3.74,3.74,0,0,1,2.16-.28c.27.11.51.21.72.32s.45.21.72.32c-.11.27-.05.4.16.4a4.25,4.25,0,0,1,0,1.16A1.72,1.72,0,0,0,227.54,25.71Zm-6.23,5.91a5.69,5.69,0,0,0-.84,2,7.61,7.61,0,0,0-.12,2.6A32.23,32.23,0,0,0,223.66,32q1.48-2.28,2.84-4.83c-.48.11-.79.05-.92-.16a1.22,1.22,0,0,0-.6-.48,1.21,1.21,0,0,1-.2-.44c0-.13-.07-.36-.12-.68h-.24q-.88,1.36-1.8,2.84A10.36,10.36,0,0,0,221.31,31.62Zm.16,15.58q.64.16.64-.64A1,1,0,0,0,221.46,47.2Zm10.07,10.47a9.34,9.34,0,0,0-.52-3.84q-.6-1.44-1.32-2.88a7.93,7.93,0,0,0-2.08-1.48,8.3,8.3,0,0,0-3-.76V49a5.22,5.22,0,0,0-.16,1.28,3.57,3.57,0,0,1-.16,1.12q0,1.84-.08,3.76a32.58,32.58,0,0,0,0,3.64,10.63,10.63,0,0,0,.64,3.08,3.93,3.93,0,0,0,1.8,2.08,7.29,7.29,0,0,0,3.12-2.48A11.51,11.51,0,0,0,231.53,57.67Zm-1.36,8c.21,0,.24.07.08.2S230.07,65.92,230.17,65.66Zm8.23-37.31a.66.66,0,0,1,.24-.4c.16-.16.19-.29.08-.4l-.4.44Q238.08,28.26,238.4,28.34Z"/><path class="cls-1" d="M239.28,27.46a.71.71,0,0,0,0,.48.9.9,0,0,1,.08.4,15.82,15.82,0,0,0-1,4.11q-.24,2.28-.4,4.59a1,1,0,0,0,.64-.56,1,1,0,0,1,.72-.56q1.12-1.84,2.32-3.56a29.07,29.07,0,0,0,2.16-3.64,1.44,1.44,0,0,1,.12-.64,2.6,2.6,0,0,0,.2-.64,2.1,2.1,0,0,1,1.6.32,3.75,3.75,0,0,1,1.12,1.12q-.4,1.52-.76,3.2a6.84,6.84,0,0,0,.12,3.36.38.38,0,0,0,.52-.08,1,1,0,0,1,.44-.32,39.74,39.74,0,0,0,3-3.36,39.63,39.63,0,0,0,2.6-3.68c.21.11.31.11.28,0s.07-.16.28-.16a.77.77,0,0,0,.36.56.78.78,0,0,1,.36.56,8.72,8.72,0,0,1-1.52,3.87q-1.12,1.48-2.32,2.92c-.16.05-.24,0-.24,0s-.05-.12-.16-.12a.52.52,0,0,0-.12.4.53.53,0,0,1-.12.4,1.46,1.46,0,0,0-.64.48,6,6,0,0,1-.56.64,2.75,2.75,0,0,1-1.24.32,10.18,10.18,0,0,0-1.24.08,7.88,7.88,0,0,1-1.6-1,2.76,2.76,0,0,1-1-1.68,6.4,6.4,0,0,0-1.12,1.28q-.48.72-1,1.44a9.23,9.23,0,0,1-1.16,1.32,4.38,4.38,0,0,1-1.52.92,1,1,0,0,1-.64,0,.43.43,0,0,0-.48,0,2.54,2.54,0,0,1-2.08-1.68,7.67,7.67,0,0,1-.4-3,28.65,28.65,0,0,1,.56-4.55,20.85,20.85,0,0,1,1.12-3.92,1.74,1.74,0,0,1,1.28-.16A6,6,0,0,1,239.28,27.46Z"/><path class="cls-1" d="M253.42,34.42a3,3,0,0,0,.36,1.76,3.16,3.16,0,0,0,1.08,1.2,3.2,3.2,0,0,0,1.44-.28,4.39,4.39,0,0,0,1-.68,7.1,7.1,0,0,0,.84-.92,5.78,5.78,0,0,1,.88-.92,3.16,3.16,0,0,1,1.28.48,6.11,6.11,0,0,1-1.08,2.68,3.78,3.78,0,0,1-2.44,1.48,5.32,5.32,0,0,1-3.83-.84,6,6,0,0,1-2.08-2.92,11.52,11.52,0,0,1,1.28-6.51,14.86,14.86,0,0,1,3.92-4.51,4.2,4.2,0,0,1,3-.2,2.8,2.8,0,0,1,2,1.72.38.38,0,0,1-.12.28c-.08.08-.07.12,0,.12a18.36,18.36,0,0,1-6.55,8,1.18,1.18,0,0,0-.44.08A.85.85,0,0,1,253.42,34.42Zm.48-2.88a20.13,20.13,0,0,0,4.47-5.35,4.11,4.11,0,0,0-2.72,2Q254.7,29.86,253.9,31.54Z"/><path class="cls-1" d="M281.07,26.35a.56.56,0,0,1,.48,0,.79.79,0,0,0,.48.12,1.74,1.74,0,0,1,1.92-.4,8.64,8.64,0,0,1,1.84,1,2.35,2.35,0,0,0,.36.64,1.26,1.26,0,0,1,.2.8,10.17,10.17,0,0,1,1.48,1.68,5.59,5.59,0,0,1,.92,2.08,5.48,5.48,0,0,1-.48,2.56,7.64,7.64,0,0,1-1.48,2.24,6.88,6.88,0,0,1-2.16,1.52,4.82,4.82,0,0,1-2.6.4,3,3,0,0,1-1.64-.72q-.6-.56-1.32-1.12a4.73,4.73,0,0,0-.56-1.44,10.76,10.76,0,0,1,.64-4.47A18.28,18.28,0,0,1,281,27.94,5.15,5.15,0,0,1,281.07,26.35Zm2.48,9.59q.88-.88,1.76-1.8a3.15,3.15,0,0,0,.72-2.6,10.37,10.37,0,0,1-.88-1.4,1.88,1.88,0,0,0-1.52-.92q-.48.72-1,1.6a12.55,12.55,0,0,0-.88,1.8,9.56,9.56,0,0,0-.52,1.84,3.78,3.78,0,0,0,.16,1.88,2,2,0,0,0,1.08-.12A3.76,3.76,0,0,1,283.54,35.93Z"/><path class="cls-1" d="M311.43,23.07v1a7.69,7.69,0,0,0-1.12,2.68,27.14,27.14,0,0,0-.48,3.12q-.16,1.64-.28,3.36a23.9,23.9,0,0,1-.44,3.24.82.82,0,0,0,.32.56,12,12,0,0,1,.64-2.12A4.06,4.06,0,0,1,311.43,33a1.71,1.71,0,0,1,.12-1,.9.9,0,0,1,.76-.56,6.32,6.32,0,0,1,1.08-1.84,8.72,8.72,0,0,0,1.16-1.76h.4a5.84,5.84,0,0,1,2-2,28.15,28.15,0,0,1,2.68-1.36,2.49,2.49,0,0,1,1.6.2,2.36,2.36,0,0,0,1.36.28,4.85,4.85,0,0,1,2.24,3.44,16.12,16.12,0,0,1-3.24,7.11,15.54,15.54,0,0,1-6.27,4.63.83.83,0,0,1-.48-.08,3.07,3.07,0,0,1-2,0,8.46,8.46,0,0,1-1.8-.8,17.12,17.12,0,0,0-1.4,3.32q-.52,1.72-1.08,3.79a53,53,0,0,1-.12,5.43q-.2,2.64-.28,5.59a.22.22,0,0,1,0,.28.38.38,0,0,0-.12.28A17,17,0,0,1,308,61.7a25.8,25.8,0,0,0-.24,3.56c.05.11,0,.17,0,.2a.49.49,0,0,0-.2.12,2,2,0,0,1,.08,1,2.36,2.36,0,0,0,.08,1,1.56,1.56,0,0,1-1.64.88q-1-.16-2.2-.4a2.45,2.45,0,0,1-.12-.28.77.77,0,0,0-.2-.28,1.3,1.3,0,0,0,.08-1.32,2.53,2.53,0,0,1-.16-1.56,2,2,0,0,1,.2-.32.65.65,0,0,0,.12-.4,8,8,0,0,0-.12-2.08,4.94,4.94,0,0,1,0-2.08,3.61,3.61,0,0,1,.24-.76,1.15,1.15,0,0,0-.08-.92c-.05-.11,0-.15,0-.12s.12,0,.12-.12q.08-1.2.16-2.2a12.11,12.11,0,0,1,.32-2,13.88,13.88,0,0,1,.2-2.36q.2-1.16.52-2.32t.56-2.24a14.93,14.93,0,0,0,.32-2.2c0-.11,0-.16-.12-.16s-.12-.05-.12-.16,0-.16,0-.16.15-.05.2-.16a2.54,2.54,0,0,1,0-2.16q.16-4.23.6-8.51t1.08-8.19a1.84,1.84,0,0,0,.4-.24,1.65,1.65,0,0,1,.32-1,2.18,2.18,0,0,1,.8-.68,2.82,2.82,0,0,1,1.08-.28A2.06,2.06,0,0,1,311.43,23.07Zm4.79,7q-.4.72-.84,1.44a4.25,4.25,0,0,1-1.08,1.2,7.61,7.61,0,0,1-.6,1.24,14.36,14.36,0,0,0-.68,1.28,3.8,3.8,0,0,0-.36,1.44,2.72,2.72,0,0,0,.44,1.56c.21,0,.32,0,.32.08a9.55,9.55,0,0,0,3.28-1.84A9.85,9.85,0,0,0,319,33.7a.69.69,0,0,1,.28-.28,1.86,1.86,0,0,0,.36-.28,4.58,4.58,0,0,0,.72-1.36,7.66,7.66,0,0,0,.4-1.44.77.77,0,0,1,.24-.28c.11-.08.16-.15.16-.2a2.28,2.28,0,0,0,.08-1.08,5.41,5.41,0,0,1,0-1.32,2.82,2.82,0,0,0-.16-.28.49.49,0,0,1-.08-.28,4.19,4.19,0,0,0-2.68,1.28A10.78,10.78,0,0,1,316.22,30Z"/><path class="cls-1" d="M338.91,26.43a1.28,1.28,0,0,1-.84,0,3.5,3.5,0,0,0-.92-.12,1.91,1.91,0,0,0-.52.2,1.91,1.91,0,0,1-.52.2,17.34,17.34,0,0,0-4.47,5.67,42.07,42.07,0,0,0-2.8,7.27,1,1,0,0,0-.44.36.67.67,0,0,1-.44.28,2.68,2.68,0,0,1-1-.48,4.91,4.91,0,0,0-.88-.56,24.64,24.64,0,0,1,.12-5.43q.36-2.64.76-5.27a10.29,10.29,0,0,1-.24-1.48,3.33,3.33,0,0,1,.08-1.32,4.3,4.3,0,0,0,.6-.28,1.94,1.94,0,0,1,.6-.2,1.51,1.51,0,0,1,1.36.72,3.06,3.06,0,0,1,.28,1.52,11.83,11.83,0,0,1-.24,1.84,8.64,8.64,0,0,0-.2,1.76,23.52,23.52,0,0,0,1.52-2.24,15.06,15.06,0,0,1,1.64-2.24A7.57,7.57,0,0,1,334.44,25a6,6,0,0,1,2.88-.64,3.67,3.67,0,0,0,1.36.72,1.29,1.29,0,0,1,.32.72Q339.07,26.27,338.91,26.43Z"/><path class="cls-1" d="M338.83,34.42a3,3,0,0,0,.36,1.76,3.15,3.15,0,0,0,1.08,1.2,3.2,3.2,0,0,0,1.44-.28,4.39,4.39,0,0,0,1-.68,7.1,7.1,0,0,0,.84-.92,5.78,5.78,0,0,1,.88-.92,3.16,3.16,0,0,1,1.28.48,6.11,6.11,0,0,1-1.08,2.68,3.78,3.78,0,0,1-2.44,1.48,5.32,5.32,0,0,1-3.83-.84,6,6,0,0,1-2.08-2.92,11.51,11.51,0,0,1,1.28-6.51,14.84,14.84,0,0,1,3.92-4.51,4.2,4.2,0,0,1,3-.2,2.8,2.8,0,0,1,2,1.72.38.38,0,0,1-.12.28c-.08.08-.07.12,0,.12a18.36,18.36,0,0,1-6.55,8,1.18,1.18,0,0,0-.44.08A.85.85,0,0,1,338.83,34.42Zm.48-2.88a20.15,20.15,0,0,0,4.47-5.35,4.11,4.11,0,0,0-2.72,2Q340.11,29.86,339.31,31.54Z"/><path class="cls-1" d="M365,27.62a1.61,1.61,0,0,1,.8-.48,1.31,1.31,0,0,1,.64,0,.37.37,0,0,1,.2.24,1.38,1.38,0,0,1,0,.32.27.27,0,0,0,.12.24c.08.05.2,0,.36-.08a2.72,2.72,0,0,1-.52,1.08,2.05,2.05,0,0,0-.44,1.08.44.44,0,0,1-.28.16.27.27,0,0,0-.2.08v.48q-2.8,2.56-5.35,5.35a23.71,23.71,0,0,1-6,4.71,8.44,8.44,0,0,1-1.88.24,13.91,13.91,0,0,1-2-.16l-1.28-.8a6.81,6.81,0,0,1-1.2-1,3.76,3.76,0,0,1-.92-1.68,6.82,6.82,0,0,1-.16-1.8,12.85,12.85,0,0,1,.24-1.92q.2-1,.44-2.12a30.39,30.39,0,0,1,1.64-3.76,18,18,0,0,1,2.12-3.2,5.1,5.1,0,0,1,2.48-1,3.11,3.11,0,0,1,2.72.56,2.35,2.35,0,0,0,.48.84,2.35,2.35,0,0,1,.48.92.14.14,0,0,0-.16.16,1.41,1.41,0,0,1-1.48.64,1.76,1.76,0,0,1-1.48-.72,11.63,11.63,0,0,0-3.12,4.67A20.59,20.59,0,0,0,350,37.21a2.83,2.83,0,0,0,.36.76l.44.6a5.31,5.31,0,0,0,1.68.24,16.52,16.52,0,0,0,3.24-2.12,37,37,0,0,0,2.8-2.6l2.64-2.72A28.93,28.93,0,0,1,364,28.82c0-.11,0-.13,0-.08s-.09.08-.2.08a1,1,0,0,1,.56-.64A1.29,1.29,0,0,0,365,27.62ZM353.3,47.12a3.84,3.84,0,0,1,2.36.52,3,3,0,0,1,1.24,1.44,2.77,2.77,0,0,1,0,1.8,3.24,3.24,0,0,1-1.24,1.68,1,1,0,0,1-.44.24,1.85,1.85,0,0,0-.52.24,22.51,22.51,0,0,1-2.2,1.44,4.55,4.55,0,0,1-2.6.64,2,2,0,0,1-.88-1.16,6.07,6.07,0,0,0-.64-1.4,5.28,5.28,0,0,0,3.24-.8q1.32-.88,2.52-1.76a1.37,1.37,0,0,0-.68-.12,2,2,0,0,1-.68,0,2.62,2.62,0,0,1-1.6-1.6,3.81,3.81,0,0,1-.4-2.16,2.59,2.59,0,0,1,.92-1.6q.76-.64,1.48-1.2a1.89,1.89,0,0,1,1.28,1,1.79,1.79,0,0,1,.08,1.72,3,3,0,0,1-.68.52A1.62,1.62,0,0,0,353.3,47.12ZM365,27.62c-.16.16-.23.16-.2,0S364.85,27.46,365,27.62Z"/><path class="cls-1" d="M366.4,26.35a.56.56,0,0,1,.48,0,.79.79,0,0,0,.48.12,1.74,1.74,0,0,1,1.92-.4,8.64,8.64,0,0,1,1.84,1,2.35,2.35,0,0,0,.36.64,1.26,1.26,0,0,1,.2.8,10.17,10.17,0,0,1,1.48,1.68,5.59,5.59,0,0,1,.92,2.08,5.48,5.48,0,0,1-.48,2.56,7.64,7.64,0,0,1-1.48,2.24A6.88,6.88,0,0,1,370,38.57a4.82,4.82,0,0,1-2.6.4,3,3,0,0,1-1.64-.72q-.6-.56-1.32-1.12a4.73,4.73,0,0,0-.56-1.44,10.76,10.76,0,0,1,.64-4.47,18.28,18.28,0,0,1,1.84-3.28A5.15,5.15,0,0,1,366.4,26.35Zm2.48,9.59q.88-.88,1.76-1.8a3.15,3.15,0,0,0,.72-2.6,10.37,10.37,0,0,1-.88-1.4,1.88,1.88,0,0,0-1.52-.92q-.48.72-1,1.6a12.55,12.55,0,0,0-.88,1.8,9.56,9.56,0,0,0-.52,1.84,3.78,3.78,0,0,0,.16,1.88,2,2,0,0,0,1.08-.12A3.76,3.76,0,0,1,368.88,35.93Z"/><path class="cls-1" d="M406.19,24.27a1.14,1.14,0,0,1-.76-.08,2.22,2.22,0,0,1-.48-.36q-.2-.2-.44-.4a1,1,0,0,0-.64-.2,41.8,41.8,0,0,0-5.23,3.36,15.45,15.45,0,0,0-4,4.55c-.05.11-.05.16,0,.16a.07.07,0,0,1,.08.08,20.81,20.81,0,0,0,4.19.84,9.18,9.18,0,0,1,4,1.32.68.68,0,0,0,.56-.36c.16-.24.32-.23.48,0a5.35,5.35,0,0,0,.32-.56c.11-.21.29-.24.56-.08l.16-.32a.73.73,0,0,0,.08-.32.53.53,0,0,0,.52,0,.91.91,0,0,0,.32-.32,1.67,1.67,0,0,1,.24-.32.49.49,0,0,1,.36-.12,7.81,7.81,0,0,1,.48-.8c.16.05.2.11.12.16s-.07.13,0,.24a8,8,0,0,1,1.4-1.12,4.61,4.61,0,0,0,1.32-1.28,1.58,1.58,0,0,0,.72-.16,4.21,4.21,0,0,0,.64-.4,3.5,3.5,0,0,1,.68-.4,1.46,1.46,0,0,1,.84-.08,1.7,1.7,0,0,1-.36,1.24,1.54,1.54,0,0,1-.84.68c-.11.11-.12.19,0,.24s.09.16,0,.32q-1.52,1.44-3.16,2.72a33.38,33.38,0,0,0-3.08,2.72,5.91,5.91,0,0,1,.72,2.8,4.68,4.68,0,0,1-.76,2.2L404,42a4.7,4.7,0,0,0-1.36,1.2l-2.16,1.08a3.77,3.77,0,0,1-2.64.12,1.3,1.3,0,0,0-.32-.24.57.57,0,0,1-.24-.4,1.37,1.37,0,0,1-1-.8q-.2-.56-.44-1.28a4.13,4.13,0,0,1,.56-1.84,10.08,10.08,0,0,1,1.08-1.48q.6-.68,1.2-1.24a6,6,0,0,0,1-1.2,1.6,1.6,0,0,1,.56-.48,1.21,1.21,0,0,0,.48-.4,13.1,13.1,0,0,0-1.88-.52,10,10,0,0,0-2-.2,12.74,12.74,0,0,1-2.44-.76,6,6,0,0,1-2.12-1.48,1.28,1.28,0,0,0-.56-1,2.3,2.3,0,0,1,0-1.4,3.78,3.78,0,0,1,.56-1.08,8.71,8.71,0,0,1,.8-.92,3.53,3.53,0,0,0,.68-.92q1.2-.88,2.72-2.24a25.5,25.5,0,0,1,3.12-2.4A23.63,23.63,0,0,1,401.87,21a3.58,3.58,0,0,1,2.88.2,2.75,2.75,0,0,0,.56.56c.21.16.43.33.64.52a1.79,1.79,0,0,1,.48.68,1.47,1.47,0,0,1,0,1c-.11,0-.16,0-.16.12A.27.27,0,0,1,406.19,24.27Zm-3.68,13.18a23.37,23.37,0,0,1-2,2,6.5,6.5,0,0,0-1.72,2.36A6.91,6.91,0,0,0,401.27,40a9.79,9.79,0,0,0,1.64-2.56Z"/><path class="cls-1" d="M414.1,27.46a.71.71,0,0,0,0,.48.9.9,0,0,1,.08.4,15.82,15.82,0,0,0-1,4.11q-.24,2.28-.4,4.59a1,1,0,0,0,.64-.56,1,1,0,0,1,.72-.56q1.12-1.84,2.32-3.56a29.07,29.07,0,0,0,2.16-3.64,1.44,1.44,0,0,1,.12-.64,2.65,2.65,0,0,0,.2-.64,2.1,2.1,0,0,1,1.6.32,3.75,3.75,0,0,1,1.12,1.12q-.4,1.52-.76,3.2a6.83,6.83,0,0,0,.12,3.36.38.38,0,0,0,.52-.08,1,1,0,0,1,.44-.32,39.59,39.59,0,0,0,5.59-7c.21.11.31.11.28,0s.07-.16.28-.16a.77.77,0,0,0,.36.56.78.78,0,0,1,.36.56,8.71,8.71,0,0,1-1.52,3.87q-1.12,1.48-2.32,2.92c-.16.05-.24,0-.24,0s-.05-.12-.16-.12a.52.52,0,0,0-.12.4.53.53,0,0,1-.12.4,1.47,1.47,0,0,0-.64.48,5.92,5.92,0,0,1-.56.64,2.75,2.75,0,0,1-1.24.32,10.18,10.18,0,0,0-1.24.08,7.88,7.88,0,0,1-1.6-1,2.76,2.76,0,0,1-1-1.68,6.43,6.43,0,0,0-1.12,1.28q-.48.72-1,1.44a9.23,9.23,0,0,1-1.16,1.32,4.37,4.37,0,0,1-1.52.92,1,1,0,0,1-.64,0,.42.42,0,0,0-.48,0,2.54,2.54,0,0,1-2.08-1.68,7.69,7.69,0,0,1-.4-3,28.77,28.77,0,0,1,.56-4.55,20.85,20.85,0,0,1,1.12-3.92,1.74,1.74,0,0,1,1.28-.16A6,6,0,0,1,414.1,27.46Z"/><path class="cls-1" d="M426.48,40.57h.08c0-.05,0-.08,0-.08s0,0,0,.08a.46.46,0,0,1-.32-.08q.4-.56.08-.88c.27.05.36,0,.28,0s-.07-.17,0-.28a1.3,1.3,0,0,1-.32-1.12c.16.11.21.2.16.28s0,.2.08.36a1.19,1.19,0,0,0,0-1,1.47,1.47,0,0,1-.16-.88c.11,0,.15.05.12.16s0,.16.12.16a40.32,40.32,0,0,1,.2-4.19,42.39,42.39,0,0,0,.2-4.43c.16-.05.21-.21.16-.48a.61.61,0,0,1,.08-.56.82.82,0,0,1-.16-.84,1.14,1.14,0,0,0,0-.84,42.23,42.23,0,0,0,.6-6,39.06,39.06,0,0,1,.76-6.47q.16-1.92.24-3.16a8.38,8.38,0,0,1,.8-2.84,3,3,0,0,1,1.44-.12A1.58,1.58,0,0,1,432,8q-.24,1.36-.4,2.68a11.29,11.29,0,0,1-.56,2.44.23.23,0,0,0,.08.16c.05.05.11,0,.16-.08.11.16,0,.29-.2.4a.38.38,0,0,0-.2.56q.32.08.24-.24t.24-.24a2,2,0,0,1-.48,1c-.05.11,0,.13.16.08s.19,0,.08.24c-.11.05-.15.11-.12.16s0,0-.12-.08a7,7,0,0,0-.24,2.4,5.93,5.93,0,0,1-.48,2.64.28.28,0,0,0,.32.32,4.86,4.86,0,0,0-.32,3q-.24,3.68-.48,6.91t-.32,6.75c.16-.11.2-.21.12-.32s0-.08.2.08a1.64,1.64,0,0,1,.16-1.44,1.83,1.83,0,0,0,.24-1.44.63.63,0,0,0,.4-.08q-.32-.4-.08-.44a.58.58,0,0,0,.4-.36c-.05-.11-.09-.12-.12,0s-.09.09-.2,0a3.72,3.72,0,0,0,.52-1.44,1.58,1.58,0,0,1,.84-1.2.64.64,0,0,1-.08-.28c0-.08-.05-.15-.16-.2q.72-1.2,1.44-2.48a12.38,12.38,0,0,1,1.72-2.36,7.57,7.57,0,0,1,2.36-1.72,6.83,6.83,0,0,1,3.44-.48,2.94,2.94,0,0,1,2,1,5,5,0,0,1,1,2,9.74,9.74,0,0,1,.28,2.36V30.5q-.16.72-.48,1.72a12.88,12.88,0,0,0-.48,2.12,14.42,14.42,0,0,1-1.68,3.16A25,25,0,0,1,439,40.17a.46.46,0,0,0-.16.32.26.26,0,0,1-.16.24,4.86,4.86,0,0,1-3,1.52,16.88,16.88,0,0,1-3.64-.08.32.32,0,0,0-.32-.16c-.16,0-.27-.11-.32-.32a.5.5,0,0,1-.24.12c-.11,0-.16,0-.16-.12a7.9,7.9,0,0,1-.4,1.2,3,3,0,0,1-.64,1,6.1,6.1,0,0,1-1.72-.08q-.84-.16-1.72-.24a3.75,3.75,0,0,1-.28-1.48A13.8,13.8,0,0,1,426.48,40.57Zm-.24-3c.21,0,.27.05.16.16a.26.26,0,0,0-.08.32c-.11,0-.13-.05-.08-.16A.34.34,0,0,0,426.24,37.61Zm.24-3.2c.11,0,.13.08.08.24s-.13.19-.24.08V34.5C426.32,34.55,426.37,34.52,426.48,34.42Zm-.16.88c.05-.05.08-.05.08,0v.16c0,.05,0,.08,0,.08S426.32,35.45,426.32,35.29Zm.24-3.84a.46.46,0,0,1,.16.32C426.61,31.78,426.56,31.67,426.56,31.46Zm.08-1.44c.21,0,.27.05.16.16a.26.26,0,0,0-.08.32c-.11,0-.13-.05-.08-.16A.34.34,0,0,0,426.64,30Zm.08-1c.05-.21.05-.2,0,0S426.67,29.33,426.72,29.06Zm.24-.48q-.24,0-.24-.32C426.88,28.37,427,28.48,427,28.58Zm-.16-.8q.08-.24,0,.12T426.8,27.78Zm3.6-10.55q-.08.48,0,.12T430.4,17.24Zm.4-.64H431v.16h-.16Zm8.87,8a3.85,3.85,0,0,1-.76.36,3.85,3.85,0,0,0-.76.36A7.89,7.89,0,0,0,436.47,27,20.07,20.07,0,0,0,435,29.34a18.34,18.34,0,0,0-1.16,2.56q-.48,1.32-.8,2.52a18.61,18.61,0,0,1-1,3,7.54,7.54,0,0,0-.64,2.84c.11.05.15.11.12.16a.13.13,0,0,0,0,.16.93.93,0,0,1,.88.16,4,4,0,0,0,1,.48,8.15,8.15,0,0,0,4.51-3.83,22.92,22.92,0,0,0,2.2-5.83c.11,0,.16,0,.16.08s.05.05.16,0a16,16,0,0,1,.12-1.88q.12-1,.16-1.92a6.39,6.39,0,0,0-.16-1.76A2.84,2.84,0,0,0,439.66,24.59Z"/><path class="cls-1" d="M445.26,31.54c0,.11,0,.16,0,.16s0,0,0,.08q.24-.24-.08-.24,0-.64.4-.48a4,4,0,0,1,.8-2.16,9.37,9.37,0,0,0,1.2-2.16H448a3.76,3.76,0,0,1,1.12-1.44,15.36,15.36,0,0,1,1.52-1,17.88,17.88,0,0,0,2.08.2,1.88,1.88,0,0,1,1.52.68,1.16,1.16,0,0,1,.2,1,3,3,0,0,0,0,1.08,4.58,4.58,0,0,1,1.44.72q-.16,1.36-.24,2.84a11.91,11.91,0,0,1-.4,2.6,7.45,7.45,0,0,1,.16,2.64,4.39,4.39,0,0,0,.56,2.64,2,2,0,0,1,.72.12,4.33,4.33,0,0,0,.88.2c-.05.16,0,.27.08.32a.32.32,0,0,1,.16.32.75.75,0,0,1-.56.4.75.75,0,0,0-.56.4,3.58,3.58,0,0,1-2-.36,3.83,3.83,0,0,1-1.36-1.16,4.88,4.88,0,0,1-.76-1.6,6.36,6.36,0,0,1-.24-1.68,1.57,1.57,0,0,0-.36.56.86.86,0,0,1-.44.48,12.5,12.5,0,0,1-1.68,3A3.67,3.67,0,0,1,446.69,41q-.72-.16-1.28-.32a4.74,4.74,0,0,1-1.2-.56,1,1,0,0,0-.24-.4,2.72,2.72,0,0,1-.32-.4,3.12,3.12,0,0,0,0-1.32,1,1,0,0,1,.44-1.08.27.27,0,0,0-.2-.08c-.08,0-.15-.05-.2-.16a1,1,0,0,1,.16-.4c.05-.05,0-.16-.08-.32h.32q-.16-.32,0-.48a3.2,3.2,0,0,1,.28-.32c.11-.11.07-.15-.12-.12s-.2,0,0-.12c0-.21,0-.27,0-.16s.07.16.12.16.15-.05.12-.16a.2.2,0,0,1,.12-.24.36.36,0,0,1-.16-.44.49.49,0,0,1,.32-.36c.05-.16,0-.25-.08-.28s-.13-.09-.08-.2.17,0,.2.08.09,0,.2-.08a3.85,3.85,0,0,0,0-.92,1.77,1.77,0,0,1,.12-.76Zm-.72,2c.05-.16.08-.15.08,0S444.59,33.75,444.54,33.54Zm2.48,5q.88-1.36,1.64-2.68t1.4-2.68c.11,0,.16,0,.16,0s.05,0,.16,0a1.34,1.34,0,0,1,.16-1.12c.21-.32.4-.61.56-.88a3.32,3.32,0,0,0,.32.48.8.8,0,0,0-.12-.48,2,2,0,0,1-.2-.32,6.53,6.53,0,0,0,.8-1.4,9.79,9.79,0,0,0,.48-1.4,1.69,1.69,0,0,0-.6,0,.84.84,0,0,1-.52-.12,3.47,3.47,0,0,1,0-.52c0-.19-.07-.31-.28-.36a23.79,23.79,0,0,0-1.52,2.44,27.1,27.1,0,0,0-1.32,2.8,17,17,0,0,0-.92,3.08A12.45,12.45,0,0,0,447,38.57Zm3.52-6.15v.16c.11.11.17.08.2-.08s0-.21-.12-.16A.07.07,0,0,1,450.53,32.42Z"/><path class="cls-1" d="M466.35,38a1.81,1.81,0,0,1-1.92.16,2.18,2.18,0,0,1-1.12-1.44,6.9,6.9,0,0,1,.52-.88q.28-.4.6-.8a1.39,1.39,0,0,1,1.76.76A2.66,2.66,0,0,1,466.35,38Zm.08-32.28a1.76,1.76,0,0,1,1.36.52q.48.52,1,1-.16,2.4-.48,4.79T467.59,17q-.36,2.52-.6,5.11a42.62,42.62,0,0,0-.16,5.23l-.28.68a3.45,3.45,0,0,0-.2.68,5,5,0,0,0-.68-.08,2.51,2.51,0,0,1-.68-.16,10,10,0,0,1-.72-4.15q.08-2.16.32-4.31.16-1.36.32-2.84t.32-2.92q.16-1.6.4-3.12a18.53,18.53,0,0,0,.24-2.88,3.69,3.69,0,0,0-.2-1.16.8.8,0,0,1,.44-1C466.11,5.89,466.21,5.79,466.43,5.73Z"/><path class="cls-2" d="M459,45.78c.22-.09.09-.28-.53-.23l-.43.34Z"/><path class="cls-2" d="M454.8,45.24c-.73.17-1.56.47-1.08.77.72-.33.89-.2,1.66-.59.62,0,1.08.09,1,.21.22-.09,1,.06,1.29-.16a6,6,0,0,0-2.9,0C454.53,45.4,454.75,45.31,454.8,45.24Z"/><path class="cls-2" d="M394.23,45.91l.39,0A2.5,2.5,0,0,0,394.23,45.91Z"/><path class="cls-2" d="M356.71,46.58c.29,0,.4-.05.42-.08C356.86,46.52,356.64,46.55,356.71,46.58Z"/><path class="cls-2" d="M350.29,46.37h.38A.91.91,0,0,0,350.29,46.37Z"/><path class="cls-2" d="M394.23,45.91l-1-.08C393.16,45.93,393.74,45.89,394.23,45.91Z"/><path class="cls-2" d="M446.46,46.19a3.21,3.21,0,0,0,.54-.1l-.51,0Z"/><path class="cls-2" d="M410.77,45.29h.3a1.62,1.62,0,0,0,.25-.14Z"/><path class="cls-2" d="M423.46,45c-.29,0-.38.28-.49.4a1.25,1.25,0,0,1,.62-.2C423.6,45.13,423.56,45.07,423.46,45Z"/><path class="cls-2" d="M443.6,45.1l.36,0Z"/><path class="cls-2" d="M401.68,45.42a.25.25,0,0,0-.12-.1S401.61,45.39,401.68,45.42Z"/><path class="cls-2" d="M46.84,59.29s0,0,0,0S46.74,59.29,46.84,59.29Z"/><path class="cls-2" d="M32.07,58.57l.2,0a.43.43,0,0,0,0-.16Z"/><path class="cls-2" d="M338.56,46.3h.05C338.92,46.27,338.74,46.28,338.56,46.3Z"/><path class="cls-2" d="M230.95,49.63c1.23.21-2,.39-.13.61C230.64,50.13,232.47,49.74,230.95,49.63Z"/><path class="cls-2" d="M446.13,46.16h-.52A4.2,4.2,0,0,0,446.13,46.16Z"/><path class="cls-2" d="M230.82,50.24h0l.19,0Z"/><path class="cls-2" d="M311.55,47.18a.85.85,0,0,0,.28.12S311.76,47.23,311.55,47.18Z"/><path class="cls-2" d="M331.68,47l-.5,0A4.58,4.58,0,0,0,331.68,47Z"/><path class="cls-2" d="M301.11,47.86a2.86,2.86,0,0,0-.73,0l.11,0A1.43,1.43,0,0,1,301.11,47.86Z"/><path class="cls-2" d="M290.24,48.17l.2.05.34,0Z"/><path class="cls-2" d="M79.86,57.69a1.69,1.69,0,0,1-.51-.23C79.52,57.66,77.93,57.8,79.86,57.69Z"/><path class="cls-2" d="M446.46,46a.45.45,0,0,1-.32.13l.36,0S446.53,46.06,446.46,46Z"/><path class="cls-2" d="M300.73,50.09H299C299.49,50.11,300.12,50.11,300.73,50.09Z"/><path class="cls-2" d="M157.83,54.51l-.4,0A1.24,1.24,0,0,0,157.83,54.51Z"/><path class="cls-2" d="M293.88,50.28a5,5,0,0,0-1-.17.83.83,0,0,0-.2.08Z"/><path class="cls-2" d="M79.34,57.46h0Z"/><path class="cls-2" d="M68,58.62c1.65-.06.76-.39,1.1-.62,2-.19.92.23,1.6.39,1.22-.15,2.15-.53,3.06-.56.07.06.25.07,0,.16,1.28-.35,3.85-.18,5.34-.62a.48.48,0,0,1,.2.08c-.25-.17-.3-.36-.25-.5.74,0,1.36-.29,1.65-.06a1.24,1.24,0,0,0-.69.2l.77-.14c.71.32-1,.17-1,.42a35,35,0,0,1,4.4-.49c.26.33-2.7.23-1.14.47l-1.79-.05c1.39.48-1.09,0,.19.53,2.36,0,2.62-.29,5-.29.52-.21-.19-.27.33-.48,3.32-.48,2.66.74,5.09.19a3.59,3.59,0,0,1,2.61-.54l-.58.41c2.28-.06,1.28-.61,3.67-.45-.42.17-1.78.2-1.44.23,1.56.24,1.08-.26,2.27-.31l.26.33c2.42-.15,5.08-.51,7.76-.69-.14.11-.6.23,0,.31a95.77,95.77,0,0,1,10.5-.19l1.24-.34c.29,0,.54.11.23.18,1.28.06.06-.19.67-.33s1,.13.51.24a45.44,45.44,0,0,1,8.76-.57l-.46.11c1.85,0,2.06-.68,3.78-.48l-.33.07c4,0,8.41-.48,11.48-.15.56-.44,4,0,4.2-.56a37.49,37.49,0,0,0,4.87.41c.86,0,1.27-.42,2.33-.52l0,.31,1.43-.38.78.34,1-.12c-.4,0-.85-.11-.79-.2a10.34,10.34,0,0,1,3.85.23l3.67-.4c-.08.13-.69.19-1.18.29,2-.39.37.31,2.16,0-.24-.06.12-.19.16-.25a23.53,23.53,0,0,0,4.46-.05l-.28.22c2.73,0,5.75-.31,8.82-.42-1.1-.06-.86-.44,0-.5l.37.31c.57-.22-.94-.09.24-.38,1.15,0,.78.34.13.47l1.39-.16c.09.09-.24.16-.32.28.56-.22,2.41.24,3.23-.14l.08.09c3.06-.11,4.45-.27,6.94-.38,0-.28,1-.26,1.75-.51,1.84,0,3.88.18,6.09.08,1.55-.19.45-.25,1.14-.44.12.25,2.33.15,1.19.38,2.65-.13,3.39-.17,6.73-.49-.37-.09-.78-.12-.57-.22.61-.06,1.39.06,1.31.19l-.16,0c3.75-.51,8.72.45,11.7-.19l-.17,0,3.1-.38c1.43,0-.85.22.21.34,3.34-.54,5.3-.11,8.05-.49,2.16.69,7.59-.3,10.49.09l-.17-.17c.74-.2.91.07,1.46.1-.08-.14-.81-.13-.35-.25,6.31-.42,13.05-.14,19.53-.19,2.37,0,1.32-1,4.32-.63l-.84.36c4.77-.55,9.78-.28,14.45-.75a1.66,1.66,0,0,1-.74.2,9.07,9.07,0,0,0,3.67-.29c.73,0,.17.17.63.26,1,.11,2.48-.38,3-.15.09,0-.28.09-.46.11.64-.13,3-.06,2.39-.32,1.76.08,3.36-.22,4.76-.1.91-.34,3,.06,3.29-.38-.11.46,3.09.27,4.2,0-.37.15,1,.12.54.32,1.27,0,2.43-.16,2.2-.38,2.35.48,4.68-.56,6,.09,3.76-.35,7.24-.6,10.62-.8-.11.45-3.74.15-3.59.62a78,78,0,0,1,8.24-.69c.83,0-.46.21-.74.29,3.21-.27,6.21-.12,9.06-.44a1.81,1.81,0,0,1-.6.14c.56,0,1.31,0,1.24-.17l-.55.07c-.91-.27,2.22-.68,2.32-.84-.94.61,2.83.08,1.33.86.37,0,.83-.16.74-.29.55,0,.73.1.17.27,2-.16,1.29-.36,3.12-.4,0,.1-.37.15-.56.27a11.58,11.58,0,0,1,3.39-.39c-.09.06.09.14-.37.15,2.65-.1,4.51-.63,7.42-.52-.85.45,1,.12,1.16.49l1.56-.15-.63-.17c1.37,0,2.58-.33,3.76-.23l-1,.18,2.57-.13-1.46-.11c1.38-.22-.16-.47,1.67-.41a19.26,19.26,0,0,1,2.09.18h0a8.18,8.18,0,0,1,2.39-.21c.27.11-.2.42,0,.49.66-.33,3.21-.16,4-.51-.28.08-.29.28-.2.32l.56-.27c.64.07.73.1.63.26,1.91,0-.62-.46,1.65-.31a3.13,3.13,0,0,1-.46.11c2.28.05,4.39-.26,6.49-.19.63.36-1.83.13-1.11.44,3-.14,6.23-.6,9.16-.57l-.54,0c.39-.54,2.18.21,3.65-.07-.36,0-.47.3-.37.24,2,0,4.08-.22,7.11-.45l-.37.14c1.18.1,3.1,0,4.38,0,.37-.14,1.1-.14.66-.33,3.94.69,7.48-.58,11,0-.42,0-1,.14-.66.13l3-.18c-.24-.23-.39-.13-1-.3a7,7,0,0,1,1.94-.28c-1.33.18,0,.37.6.49-.1-.07.1-.15,0-.22,1.56.38.25-.47,2.37-.24l-.11.12a18.69,18.69,0,0,1,2.37-.23c.36.26-.84.14-.89.36,1.2,0,2.36-.55,3.45-.31-.51.08-1.24.1-1.75.18a7.29,7.29,0,0,0,2.2.24h-.09l2,.1-.52-.07c1.49-.73,3.05-.19,5.06-.68-2,.47-.32.26-.46.56.52.07,1.3.15,1.08.24,1-.26,1.6.16,2.94-.22.06.1,1,0,.81.24,1.24-.1-.3-.16-.19-.29,1.91-.37,4.51.32,7.25-.19,2.37-.23,2.8-.57,5-.77.75.14-.6.37-.6.37a13.71,13.71,0,0,0,3.23-.05c-.23.09,0,.16.36.26.91,0,.6-.37,1.8-.24a3.47,3.47,0,0,1-.9.41c1.07-.11,2.12-.31,3.23-.42.3.16-.66.27-1.05.39a14.71,14.71,0,0,0,3.6-.49l-.8-.08c.45,0,.24.23-.1.28-1.06.23-1.54-.07-1.6-.16l.79-.08c-.82-.56-3.16.15-4.75.14l.65-.43-1.62.37c-.35-.1-.59-.33.19-.41-1.14-.18-1,.17-2,0-.11,0-.06-.05,0-.07l-1.11.14c.22-.09-.19-.29.49-.24-2-.2-3.21.37-4,.07l.17,0c-2.77.19-.26.31-2.33.71L435.44,45l-.27.31c-.29,0-.85,0-.75-.14-1.06.23.18.13-.43.34-1.38-.25-3.79.2-4.11-.28-.49.24,1.32.15-.15.34-.43-.51-1.69.12-3-.09.38-.28,1.57-.16.31-.37-.75.47-2.45-.05-3.5.06,0,.36-2.3.2-4.07.35.11-.12-3.35-.13-5-.23l0-.06c-.31.37-2,.34-3.26.44,0-.22.27-.31.94-.42l-1.17,0a4.2,4.2,0,0,1-1.39.25l.29-.28a42,42,0,0,1-5.13.24c-.11.26,1.6.68-.51.9-.08-.14-.16-.37.39-.44a3.86,3.86,0,0,1-1,.08l.84-.25c-.91-.08-.47.2-1.2.2,0-.2-.54-.13-.44-.29a4.71,4.71,0,0,0,.91,0,8.38,8.38,0,0,1-2.15-.26c.07.11,0,.27-.59.3-1.55,0-.54-.23-1.45-.31-.37.15-1.37,0-1.39.32a1.15,1.15,0,0,1-.72-.2c-.8.15-3.76.12-2.84.41l.21,0-.13,0h0c-2.63.35-5.48,0-8.09.13V46c-1.56.15-3.47.14-4.58.38-.46,0-1.09-.16-.9-.28a12.81,12.81,0,0,1-3.05.09c1.2-.2-.42-.14,1.23-.15a12,12,0,0,0-3.57.11c.56-.27-1.17-.29-1.91-.2l1.09.16c-.83.06-1.55.05-2.29,0l.39-.34c-3.18-.33-5.71.82-8.14.2-.83.25,1.73.12,1,.41-1.46,0-3-.45-3.45-.44-2-.14-1.85.53-3.95.45.27.11.53.42-1,.57-1.46,0-1.81-.46-.89-.57.35,0,.52,0,.51.06.47-.05,1.09-.12.51-.23l-.19.12c-.73-.1-2.74,0-2.27-.25-1.1.14-.47.21.35.25-1.88-.13-2.93.06-4.86,0,.31.06.59.19.29.2-2.83-.08-1.24.26-3.15.36-1.09-.15.38-.44-1.55-.24-1.18-.09-.26-.31.21-.42a19.91,19.91,0,0,1-4.29-.08l.92-.12a13.29,13.29,0,0,1-1.47.09l.53.22c-.54,0-1,0-1-.12-.56.17.44.38-.67.62-.73-.1-2.2.19-2.46-.12,2.28,0-.26-.31,1.67-.41a7.92,7.92,0,0,1-1.37,0c-.08,0,.08-.07.22-.09-2.19-.23-1,.38-3.25.43.28-.18-.53-.32-.9-.28.91,0,.44.28-.39.44a11.76,11.76,0,0,0-2.33.15l.87,0a6.7,6.7,0,0,1-2,.26c-.09-.14.91-.12.55-.17-1.11.34-2.54-.26-4.1,0-.73-.1-.08-.33-.72-.4-1.75.27-1.9-.19-3.74,0,.54.22.63.16-.66.43l3-.25-1.93.4c.91,0,1.92-.2,2.47-.18-.92.22-.83.16-.38.34-1.26-.32-2.47.28-3.93.07l0-.59c-2.18-.2-3.85.41-6.68.34l.91.08a14,14,0,0,1-2.65.2c.08-.2-.49-.26-.89-.37.05.15-2.07,0-2.31.44l-1.27-.23c-2.28,0-2.59.63-4.78.63.65-.23-.35-.35,1.12-.54-.73,0-1.39,0-1.4.14-.43-.11-2,.32-2.7.15a2.33,2.33,0,0,1-1.22.31c-.09,0,0-.1,0-.1s-1.28.17-.56.37c-2.27-.55-6.3.23-8.27-.25-1.59.11-3.52.23-5,.29.09-.06,0-.1.28-.09-2-.13-1.21.6-3.49.46-1.17-.29,1.2-.21.47-.31-.33-.64-2.74.17-4.28-.17l.37,0c-1.18-.19-2.85.33-4.76.34,0,0,.09-.06,0-.1a37.36,37.36,0,0,1-5.61.7c.56-.27.83-.16.47-.41-.82.06.25.41-1.39.53-.54-.12-1.73-.21-1.9-.48l1.55-.06c-.81-.33-2,.07-2.83,0l.1-.16c-2.38.12-2.4.52-5,.57l.27.11c-1.38.43-1.18-.18-2.56.15l-.43-.38c-.92.12-3.22.48-4.87.61a36,36,0,0,1,4-.74,19,19,0,0,0-3.57.33,4.88,4.88,0,0,1,1.19-.11,16.84,16.84,0,0,1-4.4.59c.3-.77-4.75,0-6.09-.6-3.21.39-6.39.09-10.14.26,1.35.55-1.09.05-.84.66a5.12,5.12,0,0,1-1.29,0L228.16,50c-.63-.16.83-.16.74-.3-1.92,0-.81-.23-2.08-.35.27.21-.66.33-1.75.29l1.55.23c-2.66.41-2.33-.44-5,0l.85-.22c-1.38.16-5.1.16-6.44.7-.25-.06-.58-.22,0-.28-3.31,0-7.34.78-9.92.56l.25-.16a5.62,5.62,0,0,1-1.84.19c0-.06.24-.16,0-.16a11.46,11.46,0,0,1-2.45.26l.69-.19c-3.23-.08-4.93.58-7.63.78,0-.44-2.55-.5-3.82-.52l0-.06c-3.76.08-6.36.6-9.83.89-2.18-.4-7.32.06-10.8-.08.53.06-.07.35-.69.41-.82-.06-2.24.39-2.12,0h.29c-.63-.37-2.3-.21-3.6-.17l-.2.54c-3.44-.64-8.94.62-10.83,0-.82.16-1.84.2-2.65.36l0-.28c-2.29,0-3.43,0-6.25.2l.57-.22c-1.59,0-2,.89-3.45,1l-.46-.41c-2.78.11-5.6-.15-8.33.35,0-.06.12-.19.57-.22-1.31,0-5.07-.08-4.57.48,0-.38-2.87.08-4.36.3l.22-.29a9.48,9.48,0,0,1-3.05.67c-.42,0-.38-.21.18-.16-1.4-.09-1.08.31-2.78.23l.62-.2a4.7,4.7,0,0,0-2.1.37,6.58,6.58,0,0,1-3-.21,3.37,3.37,0,0,1-1.82.36c-.12-.09.19-.16.34-.2-2.41-.09-3.56.47-5.22.27,0-.09-.15-.13-.29-.15,1.91-.07,3.45-.12,3.3-.1,0-.26-1.55-.24-.34-.64a23.47,23.47,0,0,1-4.84.7.76.76,0,0,1-.2-.08l.15,0a4.25,4.25,0,0,0-.95.08c-.48,0-.79,0-1.25,0a9.09,9.09,0,0,0-2.54,0c.08.28-.93.28,0,.47-.12,0,.14,0,.65-.07l.33,0-.05,0,1.91-.1a4.74,4.74,0,0,1-2.09.19c-.39.2-.81.4-1.05.5-1.07-.35-3.1-.47-3.4-.7-2.34.26-5.52.33-7,.92a1.45,1.45,0,0,1-1-.19,8.59,8.59,0,0,0,1-.16c-1.33.19-4,.22-4.25.6-1.69-.1.93-.38-1.38-.22l.31-.13c-4.57-.39-7.35,1.26-12.42.73a1.51,1.51,0,0,1,.6.1c-5.76-.08-11.83.82-17.52.55a7.22,7.22,0,0,0-2.76.43L52.71,57,51,57.39c-2.37.36-4.16-.55-7.16.07l.4.19c-1.09,0-3.43.28-3.26,0a1.08,1.08,0,0,1-.77.14l0-.16-2.65.39c-2.07,0,.29-.64-2.72-.54-1.12.11-3.17.6-2.74.69s1.16,0,1.2.2l-1,.13c-.16.47-.93,1,1.6,1.2l1.74-.36.57.2-1.47.08a3.67,3.67,0,0,0,2-.19,1.44,1.44,0,0,0,.75.22l1.7-.52c.22.17-.75.4.4.44.8-.24-.79-.37.54-.57.85.17.61.36,1.59.13.14.11-.06.2-.45.27A17.11,17.11,0,0,0,43.95,59c.89.22,3-.2,2.89.24a11,11,0,0,1,2.33-.47c-1.45.59,3-.11,2.65.48,1.07-.52,3.92-.39,5.83-.74a1.15,1.15,0,0,1-.49.11,14.5,14.5,0,0,1,2.11.18c.12-.4,1.81-.56,2.71-.84,1.35.32-.79.49-.35.84-.08-.31,2.29-.42,1.83-.66,1,.19.88.08,1.42.38.16-.5.94-.12,1.77-.46,1.48.18.4.44,2,.22C69.43,58.39,68,58.62,68,58.62Zm38.39-2.48h0l-.79,0Zm3.23-.14-1.4,0c-.12-.09,0-.2.33-.21C108.37,55.92,109.13,55.94,109.62,56Zm-6.91-1.66c.51-.06.68,0,.76,0l-.89.07-.06,0A.49.49,0,0,1,102.7,54.34Z"/><path class="cls-2" d="M101.8,54.75l-.21,0,.31.05.18-.1Z"/><path class="cls-2" d="M394.69,45.94h-.07l.14,0Z"/><polygon class="cls-2" points="154.23 54.78 154.23 54.71 153.95 54.79 154.23 54.78"/><path class="cls-2" d="M412.51,46.53a.58.58,0,0,0,.24.07A.73.73,0,0,0,412.51,46.53Z"/><path class="cls-2" d="M420.2,46.44l1.09.08C420.82,46.48,420.47,46.46,420.2,46.44Z"/><path class="cls-2" d="M426.11,46.47a.31.31,0,0,0,.11-.12h0Z"/><path class="cls-2" d="M332.14,48.92l-.23,0C331.38,49,331.74,49,332.14,48.92Z"/><path class="cls-2" d="M360.09,47.57c-.3.06-.59.11-.9.15C359.69,47.73,360.08,47.73,360.09,47.57Z"/><path class="cls-2" d="M300.92,50.09h0Z"/><path class="cls-2" d="M357.89,47.75a6,6,0,0,0,1.3,0A9.18,9.18,0,0,0,357.89,47.75Z"/><path class="cls-2" d="M451.74,46.12H452s0,0,0,0Z"/><path class="cls-2" d="M452.05,46.08l.32,0A.78.78,0,0,0,452.05,46.08Z"/><path class="cls-2" d="M453,46l-.66.08A1.69,1.69,0,0,0,453,46Z"/><path class="cls-2" d="M443.91,46.13l-.09.1A.14.14,0,0,0,443.91,46.13Z"/><path class="cls-2" d="M441.53,46.21a16,16,0,0,0,2.22.11l.07-.08C443.45,46.4,442.07,46,441.53,46.21Z"/><path class="cls-2" d="M431.58,45.13l2,0c-.35-.1-.81-.24.09-.28C431.15,44.61,434.19,45.12,431.58,45.13Z"/><path class="cls-2" d="M425.4,45.09c1.07-.07,0-.16,0-.22C424.76,45,424.6,45,425.4,45.09Z"/><path class="cls-2" d="M380.74,46l.1-.26C380,45.82,380.84,45.86,380.74,46Z"/><polygon class="cls-2" points="372.24 47.54 373.05 47.68 373.42 47.44 372.24 47.54"/><polygon class="cls-2" points="367.15 45.84 367.51 45.79 366.14 45.91 367.15 45.84"/><path class="cls-2" d="M292.17,47.87l.26.31C293,48.1,293.09,47.75,292.17,47.87Z"/><path class="cls-2" d="M259.8,49.15a3.48,3.48,0,0,0-1.83,0C258.71,49.1,259.44,49.2,259.8,49.15Z"/><polygon class="cls-2" points="162.72 51.93 163.37 51.8 162.14 51.94 162.72 51.93"/></svg>