<svg id="Camada_2" data-name="Camada 2" xmlns="http://www.w3.org/2000/svg" viewBox="0 0 366 92"><defs><style>.cls-1{fill:#bfbfbf;}.cls-2{fill:#efefef;}.cls-3{fill:#c3572c;}</style></defs><title>Prancheta 1</title><path class="cls-1" d="M11.52,23q.07.18-.12.18h-.74c-.09,0-.14,0-.15-.09l-1.07-2.6H5l-1.14,2.6a.16.16,0,0,1-.15.09H3c-.09,0-.14-.08-.11-.18L7,13.71a.17.17,0,0,1,.15-.1h.45a.16.16,0,0,1,.15.1ZM7.33,15.08,5.39,19.71H9.12Z"/><path class="cls-1" d="M26.89,13.6a.12.12,0,0,1,.13.14v9.31a.12.12,0,0,1-.13.13h-.72a.12.12,0,0,1-.13-.13V15.74L23,20.93a.17.17,0,0,1-.15.09h-.5a.17.17,0,0,1-.14-.09L19,15.71v7.34a.12.12,0,0,1-.13.13h-.73a.12.12,0,0,1-.13-.13V13.74a.13.13,0,0,1,.13-.14h.59a.16.16,0,0,1,.15.09l3.66,6,3.6-6a.16.16,0,0,1,.14-.09Z"/><path class="cls-1" d="M37.51,23q.07.18-.12.18h-.74c-.09,0-.14,0-.15-.09l-1.07-2.6H31l-1.14,2.6a.16.16,0,0,1-.15.09H29c-.09,0-.14-.08-.11-.18L33,13.71a.17.17,0,0,1,.15-.1h.45a.16.16,0,0,1,.15.1Zm-4.18-7.92-1.94,4.62h3.74Z"/><path class="cls-1" d="M39.51,23.18a.12.12,0,0,1-.13-.13V13.74a.13.13,0,0,1,.13-.14h.73a.12.12,0,0,1,.13.14v9.31a.12.12,0,0,1-.13.13Z"/><path class="cls-1" d="M42.41,21.83a.16.16,0,0,1,0-.19l.35-.52c0-.09.11-.09.19,0a3.71,3.71,0,0,0,2.82,1.31,2.74,2.74,0,0,0,1.71-.49,1.62,1.62,0,0,0,.63-1.37,1.3,1.3,0,0,0-.55-1.16,6.27,6.27,0,0,0-1.88-.67l-.49-.11-.5-.14a2.78,2.78,0,0,1-.54-.19L43.66,18a2.12,2.12,0,0,1-1.09-1.89,2.35,2.35,0,0,1,.89-1.92,3.59,3.59,0,0,1,2.34-.72,4.55,4.55,0,0,1,3.12,1.24.15.15,0,0,1,0,.19l-.3.52c0,.07-.11.09-.19,0a4,4,0,0,0-2.64-1.1,2.72,2.72,0,0,0-1.64.46,1.49,1.49,0,0,0-.63,1.26,1.35,1.35,0,0,0,.45,1,1.63,1.63,0,0,0,.51.29,5,5,0,0,0,.57.2l.66.16,1,.23a7.51,7.51,0,0,1,.87.33,2.67,2.67,0,0,1,.78.49,2.42,2.42,0,0,1,.69,1.74,2.5,2.5,0,0,1-.87,2,3.5,3.5,0,0,1-2.35.74A4.56,4.56,0,0,1,42.41,21.83Z"/><path class="cls-1" d="M63.57,23q.07.18-.12.18h-.74c-.09,0-.14,0-.15-.09l-1.07-2.6H57.1L56,23.09a.16.16,0,0,1-.15.09H55c-.09,0-.14-.08-.11-.18L59,13.71a.17.17,0,0,1,.15-.1h.45a.16.16,0,0,1,.15.1Zm-4.18-7.92-1.94,4.62h3.74Z"/><path class="cls-1" d="M72.68,13.6c.13,0,.17.06.11.18L69,23.08a.16.16,0,0,1-.17.11h-.45a.19.19,0,0,1-.17-.09l-4-9.31a.13.13,0,0,1,.11-.18h.78a.18.18,0,0,1,.17.13l3.35,8,3.13-8a.23.23,0,0,1,.18-.13Z"/><path class="cls-1" d="M81.89,23q.07.18-.12.18H81c-.09,0-.14,0-.15-.09l-1.07-2.6H75.42l-1.14,2.6a.16.16,0,0,1-.15.09h-.77c-.09,0-.14-.08-.11-.18l4.09-9.29a.17.17,0,0,1,.15-.1h.45a.16.16,0,0,1,.15.1Zm-4.18-7.92-1.94,4.62H79.5Z"/><path class="cls-1" d="M91.87,13.6c.09,0,.13,0,.14.14v9.31a.12.12,0,0,1-.14.13h-.56a.15.15,0,0,1-.15-.07l-6.41-7.69v7.63a.12.12,0,0,1-.13.13h-.73a.12.12,0,0,1-.13-.13V13.74a.13.13,0,0,1,.13-.14h.55a.15.15,0,0,1,.15.07L91,21.37V13.74q0-.13.14-.14Z"/><path class="cls-1" d="M96.15,15.53a4,4,0,0,0-1.08,2.85,4,4,0,0,0,1.1,2.89,3.57,3.57,0,0,0,2.69,1.15,4,4,0,0,0,1.56-.25,5.54,5.54,0,0,0,1.3-.87.12.12,0,0,1,.15,0l.52.51c.07.07.07.13,0,.18A5.06,5.06,0,0,1,99,23.37h-.09l-.15.45c.72.17,1.08.53,1.08,1.1,0,.77-.66,1.24-2,1.24a.13.13,0,0,1-.14-.13v-.27c0-.08,0-.13.14-.14h.12a1.89,1.89,0,0,0,.33,0l.18,0a1.58,1.58,0,0,0,.35-.1.6.6,0,0,0,.37-.58.52.52,0,0,0-.31-.51l-.28-.11-.35-.09c-.09,0-.12-.07-.09-.13l.21-.71a4.57,4.57,0,0,1-3-1.6,4.9,4.9,0,0,1-1.2-3.32,4.92,4.92,0,0,1,1.34-3.52,4.32,4.32,0,0,1,3.28-1.42,5.25,5.25,0,0,1,3.76,1.48c.06,0,.06.1,0,.17l-.49.49a.11.11,0,0,1-.17,0,4,4,0,0,0-3-1.19A3.51,3.51,0,0,0,96.15,15.53Z"/><path class="cls-1" d="M112.34,23q.07.18-.12.18h-.74c-.09,0-.14,0-.15-.09l-1.07-2.6h-4.39l-1.14,2.6a.16.16,0,0,1-.15.09h-.77c-.09,0-.14-.08-.11-.18l4.09-9.29a.17.17,0,0,1,.15-.1h.45a.16.16,0,0,1,.15.1Zm-4.18-7.92-1.94,4.62h3.74Z"/><path class="cls-1" d="M117.86,13.6a4.14,4.14,0,0,1,3.21,1.3,5,5,0,0,1,1.19,3.49,5,5,0,0,1-1.18,3.51,4.15,4.15,0,0,1-3.22,1.28h-3.52a.12.12,0,0,1-.13-.13V13.74a.13.13,0,0,1,.13-.14Zm0,8.65a3.18,3.18,0,0,0,2.51-1,4.12,4.12,0,0,0,.9-2.82,4.2,4.2,0,0,0-.9-2.85,3.15,3.15,0,0,0-2.51-1H115.2v7.72Z"/><path class="cls-1" d="M132.16,23q.07.18-.12.18h-.74c-.09,0-.14,0-.15-.09l-1.07-2.6h-4.39l-1.14,2.6a.16.16,0,0,1-.15.09h-.77c-.09,0-.14-.08-.11-.18l4.09-9.29a.17.17,0,0,1,.15-.1h.45a.16.16,0,0,1,.15.1ZM128,15.08,126,19.71h3.74Z"/><path class="cls-1" d="M145.37,13.6q.13,0,.14.14v.67q0,.13-.14.14h-3.46v8.5a.12.12,0,0,1-.13.13h-.71a.12.12,0,0,1-.13-.13v-8.5h-3.47a.12.12,0,0,1-.13-.14v-.67a.13.13,0,0,1,.13-.14Z"/><path class="cls-1" d="M154.21,22.26a.12.12,0,0,1,.13.13v.66a.12.12,0,0,1-.13.13h-6.7a.12.12,0,0,1-.13-.13V13.74a.13.13,0,0,1,.13-.14h6.64q.13,0,.14.14v.65c0,.09,0,.13-.14.14h-5.77V18h4.9a.13.13,0,0,1,.14.13v.52a.12.12,0,0,1-.14.13h-4.9v3.51Zm-3.4-9.58a.15.15,0,0,1-.15-.21l1-2.16a.18.18,0,0,1,.15-.11h.65a.16.16,0,0,1,.15.23l-1.19,2.15a.13.13,0,0,1-.14.09Z"/><path class="cls-1" d="M157.19,21.94a4.89,4.89,0,0,1-1.38-3.55,4.92,4.92,0,0,1,1.34-3.52,4.32,4.32,0,0,1,3.28-1.42,5.25,5.25,0,0,1,3.76,1.48c.06,0,.06.1,0,.17l-.49.49a.11.11,0,0,1-.17,0,4,4,0,0,0-3-1.19,3.51,3.51,0,0,0-2.66,1.14,4,4,0,0,0-1.08,2.85,4,4,0,0,0,1.1,2.89,3.57,3.57,0,0,0,2.69,1.15,4,4,0,0,0,1.56-.25,5.54,5.54,0,0,0,1.3-.87.12.12,0,0,1,.15,0l.52.51c.07.07.07.13,0,.18a5.06,5.06,0,0,1-3.46,1.38A4.61,4.61,0,0,1,157.19,21.94Z"/><path class="cls-1" d="M174.26,13.6c.09,0,.13,0,.14.14v9.31a.12.12,0,0,1-.14.13h-.56a.15.15,0,0,1-.15-.07l-6.41-7.69v7.63a.12.12,0,0,1-.13.13h-.73a.12.12,0,0,1-.13-.13V13.74a.13.13,0,0,1,.13-.14h.55a.15.15,0,0,1,.15.07l6.44,7.69V13.74q0-.13.14-.14Z"/><path class="cls-1" d="M177.13,23.18a.12.12,0,0,1-.13-.13V13.74a.13.13,0,0,1,.13-.14h.73c.09,0,.13,0,.13.14v9.31a.12.12,0,0,1-.13.13Z"/><path class="cls-1" d="M181.49,21.94a4.89,4.89,0,0,1-1.38-3.55,4.92,4.92,0,0,1,1.34-3.52,4.32,4.32,0,0,1,3.28-1.42,5.25,5.25,0,0,1,3.76,1.48c.06,0,.06.1,0,.17l-.49.49a.11.11,0,0,1-.17,0,4,4,0,0,0-3-1.19,3.51,3.51,0,0,0-2.66,1.14,4,4,0,0,0-1.08,2.85,4,4,0,0,0,1.1,2.89,3.57,3.57,0,0,0,2.69,1.15,4,4,0,0,0,1.56-.25,5.54,5.54,0,0,0,1.3-.87.12.12,0,0,1,.15,0l.52.51c.07.07.07.13,0,.18a5.06,5.06,0,0,1-3.46,1.38A4.61,4.61,0,0,1,181.49,21.94Z"/><path class="cls-1" d="M198.32,23q.07.18-.12.18h-.74c-.09,0-.14,0-.15-.09l-1.07-2.6h-4.39l-1.14,2.6a.16.16,0,0,1-.15.09h-.77c-.09,0-.14-.08-.11-.18l4.09-9.29a.17.17,0,0,1,.15-.1h.45a.16.16,0,0,1,.15.1Zm-4.18-7.92-1.94,4.62h3.74Z"/><path class="cls-1" d="M208.46,13.6a4.14,4.14,0,0,1,3.21,1.3,5,5,0,0,1,1.19,3.49,5,5,0,0,1-1.18,3.51,4.15,4.15,0,0,1-3.22,1.28h-3.52a.12.12,0,0,1-.13-.13V13.74a.13.13,0,0,1,.13-.14Zm0,8.65a3.18,3.18,0,0,0,2.51-1,4.12,4.12,0,0,0,.9-2.82,4.2,4.2,0,0,0-.9-2.85,3.15,3.15,0,0,0-2.51-1h-2.65v7.72Z"/><path class="cls-1" d="M221.81,22.26a.12.12,0,0,1,.13.13v.66a.12.12,0,0,1-.13.13h-6.7a.12.12,0,0,1-.13-.13V13.74a.13.13,0,0,1,.13-.14h6.64c.09,0,.13,0,.14.14v.65c0,.09,0,.13-.14.14H216V18h4.9a.13.13,0,0,1,.14.13v.52a.12.12,0,0,1-.14.13H216v3.51Z"/><path class="cls-2" d="M239.5,19.72c0,2.34-1.68,3.47-4.61,3.47h-5.56a.4.4,0,0,1-.45-.45V10.87a.41.41,0,0,1,.45-.46h4.6c3,0,4.67,1.13,4.67,3.49A2.62,2.62,0,0,1,237,16.5,3.06,3.06,0,0,1,239.5,19.72Zm-7-6.48v2.28h2a.94.94,0,0,0,.85-.36,1.36,1.36,0,0,0,.23-.74,1.17,1.17,0,0,0-.38-.94,1,1,0,0,0-.7-.24Zm2.63,7.1a.9.9,0,0,0,.83-.39,1.53,1.53,0,0,0,.23-.78,1.36,1.36,0,0,0-.24-.77,1,1,0,0,0-.84-.37h-2.61v2.31Z"/><path class="cls-2" d="M241.85,23.18a.4.4,0,0,1-.45-.45V10.87a.41.41,0,0,1,.45-.46h2.7a.4.4,0,0,1,.45.46V22.73a.4.4,0,0,1-.45.45Z"/><path class="cls-2" d="M253.53,23.41a6.33,6.33,0,0,1-4.73-1.77A6.43,6.43,0,0,1,247,16.88a6.55,6.55,0,0,1,1.77-4.8,7.11,7.11,0,0,1,9.46,0A6.6,6.6,0,0,1,260,16.88a6.47,6.47,0,0,1-1.76,4.75A6.37,6.37,0,0,1,253.53,23.41Zm2.3-4.11a3,3,0,0,0,1-2.4,3.11,3.11,0,0,0-1-2.47,3.41,3.41,0,0,0-2.29-.88,3.35,3.35,0,0,0-2.28.88,3.12,3.12,0,0,0-1,2.47,3,3,0,0,0,1,2.39,3.56,3.56,0,0,0,4.6,0Z"/><path class="cls-2" d="M275,10.41a.4.4,0,0,1,.45.46V22.73a.4.4,0,0,1-.45.45h-2.68a.4.4,0,0,1-.45-.45V16.8l-2.23,3.76a.63.63,0,0,1-.55.31h-.78a.59.59,0,0,1-.54-.31l-2.14-3.74v5.92a.4.4,0,0,1-.45.45h-2.68a.4.4,0,0,1-.45-.45V10.87a.41.41,0,0,1,.45-.46h2.06a.62.62,0,0,1,.55.29l3.61,5.6,3.69-5.6a.59.59,0,0,1,.54-.29Z"/><path class="cls-2" d="M287.78,19.84a.4.4,0,0,1,.45.45v2.43a.4.4,0,0,1-.45.45h-9.07a.4.4,0,0,1-.45-.45V10.87a.41.41,0,0,1,.45-.46h9a.4.4,0,0,1,.45.46v2.41a.4.4,0,0,1-.45.45h-5.88v1.55h4.93a.4.4,0,0,1,.45.45V17.8a.4.4,0,0,1-.45.45h-4.93v1.59Z"/><path class="cls-2" d="M291.63,21.55a6.39,6.39,0,0,1-1.91-4.74,6.42,6.42,0,0,1,1.92-4.74,6.55,6.55,0,0,1,4.8-1.92,6.24,6.24,0,0,1,5.19,2.35.34.34,0,0,1-.07.54l-2.07,1.61a.36.36,0,0,1-.53-.06,3.36,3.36,0,0,0-2.56-1.22,2.79,2.79,0,0,0-2.19,1,3.56,3.56,0,0,0-.86,2.42,3.54,3.54,0,0,0,.86,2.44,2.76,2.76,0,0,0,2.18,1,3.58,3.58,0,0,0,2.66-1.27.32.32,0,0,1,.52-.07l2,1.45c.23.17.28.33.14.48a6.56,6.56,0,0,1-5.47,2.65A6.41,6.41,0,0,1,291.63,21.55Z"/><path class="cls-2" d="M315.36,22.66c.14.32,0,.53-.37.53h-3a.5.5,0,0,1-.53-.35L311,21.67h-4.29l-.51,1.17a.55.55,0,0,1-.53.35h-3c-.37,0-.47-.18-.34-.53l5.31-11.91a.55.55,0,0,1,.53-.35h1.6a.52.52,0,0,1,.53.35ZM306,9.32a.35.35,0,0,1-.29-.57L308,5.42a.53.53,0,0,1,.51-.27h.84a.55.55,0,0,1,.51.25l2.41,3.34a.35.35,0,0,1-.29.57h-1.34a1,1,0,0,1-.84-.35L309,7.86,308.16,9a1,1,0,0,1-.84.37Zm3,6.46-1.17,3.28h2.26Z"/><path class="cls-2" d="M328.3,10.41a.41.41,0,0,1,.46.46V22.73a.4.4,0,0,1-.46.45h-1.83a.69.69,0,0,1-.57-.26l-5.33-6.17v6a.4.4,0,0,1-.46.45h-2.68a.4.4,0,0,1-.45-.45V10.87a.41.41,0,0,1,.45-.46h1.83a.68.68,0,0,1,.56.26l5.35,6.18v-6a.41.41,0,0,1,.46-.46Z"/><path class="cls-2" d="M332,23.18a.4.4,0,0,1-.46-.45V10.87a.41.41,0,0,1,.46-.46h2.7a.4.4,0,0,1,.45.46V22.73a.4.4,0,0,1-.45.45Z"/><path class="cls-2" d="M339,21.55a6.39,6.39,0,0,1-1.91-4.74,6.42,6.42,0,0,1,1.92-4.74,6.55,6.55,0,0,1,4.8-1.92,6.24,6.24,0,0,1,5.19,2.35.34.34,0,0,1-.07.54l-2.07,1.61a.36.36,0,0,1-.53-.06,3.36,3.36,0,0,0-2.56-1.22,2.79,2.79,0,0,0-2.19,1,3.56,3.56,0,0,0-.86,2.42,3.54,3.54,0,0,0,.86,2.44,2.76,2.76,0,0,0,2.18,1,3.58,3.58,0,0,0,2.67-1.27.32.32,0,0,1,.52-.07l2,1.45c.23.17.28.33.14.48a6.56,6.56,0,0,1-5.47,2.65A6.41,6.41,0,0,1,339,21.55Z"/><path class="cls-2" d="M362.78,22.66c.14.32,0,.53-.37.53h-3a.5.5,0,0,1-.53-.35l-.48-1.17h-4.29l-.51,1.17a.55.55,0,0,1-.53.35h-3c-.37,0-.47-.18-.34-.53l5.31-11.91a.55.55,0,0,1,.53-.35h1.6a.52.52,0,0,1,.53.35Zm-6.41-6.88-1.17,3.28h2.26Z"/><path class="cls-1" d="M12.56,48.25a.11.11,0,0,1,0,.16l-.51.49c-.05.05-.11,0-.16,0l-1-1.08A5.17,5.17,0,0,1,8,48.55a4.75,4.75,0,0,1-3.55-1.33,4.83,4.83,0,0,1-1.32-3.56,4.91,4.91,0,0,1,1.33-3.6A4.73,4.73,0,0,1,8,38.7a4.74,4.74,0,0,1,3.56,1.36,5,5,0,0,1,1.32,3.6,4.88,4.88,0,0,1-1.32,3.56Zm-2.4-1.17L8.72,45.59a.11.11,0,0,1,0-.17l.51-.48c.05-.07.11-.07.17,0l1.5,1.57a3.94,3.94,0,0,0,1-2.85,4,4,0,0,0-1.06-2.92A3.76,3.76,0,0,0,8,39.64,3.76,3.76,0,0,0,5.2,40.73a4,4,0,0,0-1.06,2.92,3.9,3.9,0,0,0,1.06,2.89A3.84,3.84,0,0,0,8,47.6,4.15,4.15,0,0,0,10.16,47.08Z"/><path class="cls-1" d="M15.88,47.34a4.83,4.83,0,0,1-1-3.25V38.94a.13.13,0,0,1,.13-.14h.71a.12.12,0,0,1,.13.14v5.15a3.9,3.9,0,0,0,.75,2.56,2.59,2.59,0,0,0,2.11.9,2.55,2.55,0,0,0,2.09-.9,4,4,0,0,0,.74-2.56V38.94c0-.09,0-.13.14-.14h.72q.13,0,.14.14v5.15a4.8,4.8,0,0,1-1,3.25,3.52,3.52,0,0,1-2.81,1.2A3.49,3.49,0,0,1,15.88,47.34Z"/><path class="cls-1" d="M31.77,47.45a.12.12,0,0,1,.13.13v.66a.12.12,0,0,1-.13.13h-6.7a.12.12,0,0,1-.13-.13V38.94a.13.13,0,0,1,.13-.14h6.64c.09,0,.13,0,.14.14v.65c0,.09,0,.13-.14.14H25.93v3.42h4.9a.13.13,0,0,1,.14.13v.52a.12.12,0,0,1-.14.13h-4.9v3.51Z"/><path class="cls-1" d="M45.87,38.79c.13,0,.17.06.11.18l-3.79,9.3a.16.16,0,0,1-.17.11h-.45a.19.19,0,0,1-.17-.09l-4-9.31a.13.13,0,0,1,.11-.18h.78a.18.18,0,0,1,.17.13l3.35,8,3.13-8a.23.23,0,0,1,.18-.13Z"/><path class="cls-1" d="M55.08,48.2q.07.18-.12.18h-.74c-.09,0-.14,0-.15-.09L53,45.69H48.61l-1.14,2.6a.16.16,0,0,1-.15.09h-.77c-.09,0-.14-.08-.11-.18l4.09-9.29a.17.17,0,0,1,.15-.1h.45a.16.16,0,0,1,.15.1ZM50.9,40.28,49,44.9h3.74Z"/><path class="cls-1" d="M57.08,48.38a.12.12,0,0,1-.13-.13V38.94a.13.13,0,0,1,.13-.14h.73a.12.12,0,0,1,.13.14v9.31a.12.12,0,0,1-.13.13Z"/><path class="cls-3" d="M77,33.67a.48.48,0,0,1,.53.53V37a.47.47,0,0,1-.53.52H73.12V47.86a.47.47,0,0,1-.53.52H69.48a.46.46,0,0,1-.52-.52V37.52H65.07a.46.46,0,0,1-.52-.52V34.21a.47.47,0,0,1,.52-.53Z"/><path class="cls-3" d="M92,47.75c.19.34,0,.63-.38.63h-3A.62.62,0,0,1,88,48l-2.37-4.77h-2v4.62a.46.46,0,0,1-.52.52H80.06a.46.46,0,0,1-.52-.52V34.21a.47.47,0,0,1,.52-.53h5.79A5.7,5.7,0,0,1,89.77,35a4.42,4.42,0,0,1,1.5,3.47,4.33,4.33,0,0,1-2.15,3.95ZM83.67,37v2.9h2.18A1.36,1.36,0,0,0,87,39.41a1.55,1.55,0,0,0,.39-1,1.44,1.44,0,0,0-.4-1A1.42,1.42,0,0,0,85.85,37Z"/><path class="cls-3" d="M107.65,47.77c.16.37,0,.6-.42.6h-3.4a.58.58,0,0,1-.6-.4l-.55-1.34H97.74L97.15,48a.63.63,0,0,1-.62.4H93.09c-.42,0-.54-.21-.39-.6l6.11-13.7a.63.63,0,0,1,.6-.4h1.85a.6.6,0,0,1,.62.4Zm-7.37-7.92-1.34,3.77h2.6Z"/><path class="cls-3" d="M122.53,33.67a.48.48,0,0,1,.53.53V47.86a.47.47,0,0,1-.53.52h-2.11a.8.8,0,0,1-.66-.3L113.63,41v6.87a.46.46,0,0,1-.52.52H110a.46.46,0,0,1-.52-.52V34.21a.47.47,0,0,1,.52-.53h2.1a.78.78,0,0,1,.65.3l6.15,7.12V34.21a.47.47,0,0,1,.52-.53Z"/><path class="cls-3" d="M127.94,48a6.7,6.7,0,0,1-2.47-1.56.55.55,0,0,1-.08-.73l1.3-2.14c.18-.31.43-.34.73-.1s.76.58,1,.76a4.83,4.83,0,0,0,1,.49,3.58,3.58,0,0,0,1.27.24,2.93,2.93,0,0,0,1.27-.26.79.79,0,0,0,.55-.73c0-.5-.44-.76-1.56-1.08q-.74-.18-1.2-.34c-.32-.09-.72-.24-1.2-.42a4.44,4.44,0,0,1-1.19-.62,4.33,4.33,0,0,1-1.61-2,4.38,4.38,0,0,1-.24-1.46,4,4,0,0,1,1.52-3.31A6.09,6.09,0,0,1,131,33.53a9.67,9.67,0,0,1,5,1.4.53.53,0,0,1,.22.72l-1.1,2.25a.48.48,0,0,1-.72.24,8.88,8.88,0,0,0-3.33-1c-1,0-1.45.28-1.46.82s.46.81,1.37,1q.91.18,1.54.37a10.36,10.36,0,0,1,1.48.58,5.77,5.77,0,0,1,1.37.87,4.15,4.15,0,0,1,1.28,3.08,4.38,4.38,0,0,1-1.5,3.46,5.7,5.7,0,0,1-3.89,1.31A8.82,8.82,0,0,1,127.94,48Z"/><path class="cls-3" d="M149.89,33.67a.47.47,0,0,1,.52.53V37a.46.46,0,0,1-.52.52h-6.77v1.78h5.67a.46.46,0,0,1,.52.52v2.38a.46.46,0,0,1-.52.52h-5.67v5.15a.46.46,0,0,1-.52.52h-3.09a.46.46,0,0,1-.52-.52V34.21a.47.47,0,0,1,.52-.53Z"/><path class="cls-3" d="M159.16,48.64a7.29,7.29,0,0,1-5.44-2,7.41,7.41,0,0,1-2-5.47,7.54,7.54,0,0,1,2-5.53,8.18,8.18,0,0,1,10.89,0,7.6,7.6,0,0,1,2,5.52,7.44,7.44,0,0,1-2,5.47A7.33,7.33,0,0,1,159.16,48.64Zm2.65-4.73A3.39,3.39,0,0,0,163,41.15a3.58,3.58,0,0,0-1.16-2.84,3.92,3.92,0,0,0-2.64-1,3.86,3.86,0,0,0-2.62,1,3.58,3.58,0,0,0-1.16,2.84,3.41,3.41,0,0,0,1.14,2.75,4.1,4.1,0,0,0,5.29,0Z"/><path class="cls-3" d="M181.41,47.75c.19.34,0,.63-.38.63h-3a.62.62,0,0,1-.6-.38l-2.37-4.77h-2v4.62a.46.46,0,0,1-.52.52h-3.09a.46.46,0,0,1-.52-.52V34.21a.47.47,0,0,1,.52-.53h5.79A5.7,5.7,0,0,1,179.2,35a4.42,4.42,0,0,1,1.5,3.47,4.33,4.33,0,0,1-2.15,3.95ZM173.1,37v2.9h2.18a1.36,1.36,0,0,0,1.13-.47,1.55,1.55,0,0,0,.39-1,1.44,1.44,0,0,0-.4-1,1.42,1.42,0,0,0-1.12-.44Z"/><path class="cls-3" d="M198.4,33.67a.47.47,0,0,1,.52.53V47.86a.46.46,0,0,1-.52.52h-3.09a.46.46,0,0,1-.52-.52V41l-2.56,4.33a.73.73,0,0,1-.64.36h-.9a.68.68,0,0,1-.63-.36L187.6,41v6.81a.46.46,0,0,1-.52.52H184a.46.46,0,0,1-.52-.52V34.21a.47.47,0,0,1,.52-.53h2.37A.71.71,0,0,1,187,34l4.15,6.45L195.39,34a.68.68,0,0,1,.63-.34Z"/><path class="cls-3" d="M215.71,47.77c.16.37,0,.6-.42.6h-3.4a.58.58,0,0,1-.6-.4l-.55-1.34H205.8L205.21,48a.63.63,0,0,1-.62.4h-3.45c-.42,0-.54-.21-.39-.6l6.11-13.7a.63.63,0,0,1,.6-.4h1.85a.6.6,0,0,1,.62.4Zm-7.37-7.92L207,43.63h2.6Z"/><path class="cls-3" d="M230,47.75c.19.34,0,.63-.38.63h-3A.62.62,0,0,1,226,48l-2.37-4.77h-2v4.62a.46.46,0,0,1-.52.52h-3.09a.46.46,0,0,1-.52-.52V34.21a.47.47,0,0,1,.52-.53h5.79A5.7,5.7,0,0,1,227.79,35a4.42,4.42,0,0,1,1.5,3.47,4.33,4.33,0,0,1-2.15,3.95ZM221.69,37v2.9h2.18a1.36,1.36,0,0,0,1.13-.47,1.55,1.55,0,0,0,.39-1,1.44,1.44,0,0,0-.4-1,1.42,1.42,0,0,0-1.12-.44Z"/><path class="cls-2" d="M5.91,75.31a7.28,7.28,0,0,1-2.68-1.69.6.6,0,0,1-.09-.79L4.55,70.5c.2-.33.47-.37.79-.11s.82.63,1.11.82a5.26,5.26,0,0,0,1.09.53A3.9,3.9,0,0,0,8.93,72a3.19,3.19,0,0,0,1.38-.28.86.86,0,0,0,.6-.79c0-.55-.48-.82-1.69-1.17q-.8-.2-1.3-.37c-.35-.1-.78-.26-1.3-.46a4.82,4.82,0,0,1-1.29-.67,4.71,4.71,0,0,1-1.75-2.13,4.76,4.76,0,0,1-.26-1.58A4.39,4.39,0,0,1,5,61a6.62,6.62,0,0,1,4.29-1.33,10.5,10.5,0,0,1,5.47,1.53.58.58,0,0,1,.23.78l-1.19,2.44a.52.52,0,0,1-.78.26,9.64,9.64,0,0,0-3.62-1.08c-1,0-1.57.3-1.58.89s.5.88,1.49,1.09q1,.2,1.67.4a11.3,11.3,0,0,1,1.6.64,6.27,6.27,0,0,1,1.49.95,4.51,4.51,0,0,1,1.39,3.34,4.76,4.76,0,0,1-1.63,3.75A6.19,6.19,0,0,1,9.58,76,9.59,9.59,0,0,1,5.91,75.31Z"/><path class="cls-2" d="M29.83,71.59a.5.5,0,0,1,.57.57v3a.5.5,0,0,1-.57.57H18.49a.5.5,0,0,1-.57-.57V60.37a.51.51,0,0,1,.57-.58H29.76a.51.51,0,0,1,.57.58v3a.5.5,0,0,1-.57.57H22.41v1.94h6.16a.5.5,0,0,1,.57.57V69a.5.5,0,0,1-.57.57H22.41v2Z"/><path class="cls-2" d="M39.69,76a6.45,6.45,0,0,1-5-2,7.79,7.79,0,0,1-1.85-5.46v-8.1a.51.51,0,0,1,.57-.58h3.35a.51.51,0,0,1,.57.58v8.1c0,2.09.74,3,2.38,3s2.34-.91,2.34-3v-8.1a.51.51,0,0,1,.57-.58H46a.52.52,0,0,1,.58.58v8.1a7.84,7.84,0,0,1-1.84,5.46A6.4,6.4,0,0,1,39.69,76Z"/><path class="cls-2" d="M59,73.73a8.53,8.53,0,0,1,0-11.85,8.19,8.19,0,0,1,6-2.4,7.79,7.79,0,0,1,6.48,2.94.43.43,0,0,1-.09.68l-2.58,2a.45.45,0,0,1-.66-.08A4.2,4.2,0,0,0,65,63.51a3.48,3.48,0,0,0-2.74,1.23,4.82,4.82,0,0,0,0,6.07A3.45,3.45,0,0,0,65,72a4.47,4.47,0,0,0,3.33-1.59.41.41,0,0,1,.65-.09l2.55,1.82c.29.21.35.41.18.6a8.19,8.19,0,0,1-6.84,3.31A8,8,0,0,1,59,73.73Z"/><path class="cls-2" d="M81,76a7.92,7.92,0,0,1-5.92-2.22,8,8,0,0,1-2.21-5.94,8.19,8.19,0,0,1,2.22-6A8.88,8.88,0,0,1,87,61.9a8.25,8.25,0,0,1,2.19,6A8.08,8.08,0,0,1,87,73.83,8,8,0,0,1,81,76Zm2.87-5.13a3.68,3.68,0,0,0,1.25-3,3.89,3.89,0,0,0-1.26-3.09A4.26,4.26,0,0,0,81,63.72a4.19,4.19,0,0,0-2.85,1.1,3.89,3.89,0,0,0-1.26,3.09,3.7,3.7,0,0,0,1.24,3,4.45,4.45,0,0,0,5.75,0Z"/><path class="cls-2" d="M105.22,75.08c.21.37,0,.68-.41.68h-3.26a.68.68,0,0,1-.66-.41l-2.57-5.18H96.19v5a.5.5,0,0,1-.57.57H92.27a.5.5,0,0,1-.57-.57V60.37a.51.51,0,0,1,.57-.58h6.29a6.19,6.19,0,0,1,4.26,1.44A4.8,4.8,0,0,1,104.44,65a4.71,4.71,0,0,1-2.34,4.29Zm-9-11.71v3.15h2.37A1.48,1.48,0,0,0,99.79,66a1.68,1.68,0,0,0,.42-1.09,1.57,1.57,0,0,0-.43-1.07,1.54,1.54,0,0,0-1.21-.48Z"/><path class="cls-2" d="M114.33,59.79a6.19,6.19,0,0,1,4.26,1.44A4.8,4.8,0,0,1,120.21,65a4.75,4.75,0,0,1-1.62,3.75,6.23,6.23,0,0,1-4.27,1.43H112v5a.5.5,0,0,1-.57.57H108a.5.5,0,0,1-.57-.57V60.37a.51.51,0,0,1,.57-.58Zm0,6.74a1.48,1.48,0,0,0,1.23-.51,1.68,1.68,0,0,0,.42-1.09,1.57,1.57,0,0,0-.43-1.07,1.54,1.54,0,0,0-1.21-.48H112v3.15Z"/><path class="cls-2" d="M129.68,76a7.92,7.92,0,0,1-5.92-2.22,8,8,0,0,1-2.21-5.94,8.18,8.18,0,0,1,2.22-6,8.88,8.88,0,0,1,11.83,0,8.26,8.26,0,0,1,2.19,6,8.08,8.08,0,0,1-2.19,5.94A8,8,0,0,1,129.68,76Zm2.87-5.13a3.68,3.68,0,0,0,1.25-3,3.89,3.89,0,0,0-1.26-3.09,4.26,4.26,0,0,0-2.86-1.1,4.19,4.19,0,0,0-2.85,1.1,3.89,3.89,0,0,0-1.26,3.09,3.7,3.7,0,0,0,1.24,3,4.45,4.45,0,0,0,5.75,0Z"/><path class="cls-2" d="M141.08,70.1q-.52,0-.57-.57l-.46-10.06q0-.57.57-.57h3.81q.62,0,.57.57l-.45,10.06c0,.38-.22.57-.58.57Zm1.46,6a2.12,2.12,0,0,1-1.59-.68,2.29,2.29,0,0,1,0-3.21,2.18,2.18,0,0,1,1.59-.66,2.27,2.27,0,0,1,1.6,3.87A2.16,2.16,0,0,1,142.54,76.11Z"/><rect class="cls-1" x="235" y="34" width="128" height="13"/><rect class="cls-1" x="152" y="61" width="211" height="13"/></svg>