<svg id="Camada_1" data-name="Camada 1" xmlns="http://www.w3.org/2000/svg" viewBox="0 0 215 93"><defs><style>.cls-1{fill:none;}.cls-1,.cls-3{stroke:#4d4d4d;stroke-miterlimit:10;}.cls-2{isolation:isolate;}.cls-3{fill:#333;stroke-width:0.25px;}</style></defs><title>Prancheta 1</title><path class="cls-1" d="M127.68,61.52c12,5.17,26.3,3.73,37.8-2.48s20.28-16.78,25.75-28.65c3.4-7.39,5.63-15.68,4-23.65l-9.29,10L197.14,6.4l9.2,13.82-18.26-4.36a53.51,53.51,0,0,1,10.65,2.35L193,16.52a19,19,0,0,1,7.85,1.21,9.82,9.82,0,0,1-6.29-4.2l4.42,1a7.12,7.12,0,0,0-3.46-1.64,6.58,6.58,0,0,1,3.59-1.32,5.57,5.57,0,0,1-2.9-1.13l3.28-.16L196.36,9.1"/><g class="cls-2"><path class="cls-3" d="M16.85,70.54a24.85,24.85,0,0,0,1.36-5c-1.16-1.15-1-2.49-.49-3.95A3.66,3.66,0,0,1,18,61a.6.6,0,0,1,.92.06,3.75,3.75,0,0,1,.18,1c0,.67,0,1.32,0,1.91v1c1.59.75,4.22-1.77,4.7-2.85.17-.3.34-.38.58-.29s.09.48.05.54C24,63.52,21,65.83,19,65.66l-.27,1c-.51,1.41-.88,2.88-1.34,4.33a6.62,6.62,0,0,1-.79,1.41.65.65,0,0,1-1.17-.19,2.66,2.66,0,0,1-.41-1,48.28,48.28,0,0,1-.29-8.79.58.58,0,0,1,.71-.58c0,1.9-.14,5-.06,6.91a7.16,7.16,0,0,0,.55,3A1.85,1.85,0,0,0,16.85,70.54Zm1.5-8.44a2.12,2.12,0,0,0,0,2.27A4.07,4.07,0,0,0,18.35,62.09Z"/><path class="cls-3" d="M34.62,59.49c.06.31.17.42.15.56a2,2,0,0,1-.36.79A43.34,43.34,0,0,1,29.09,67c-.67.53-1.36,1-2,1.59a3.75,3.75,0,0,1-1.74.68,1.68,1.68,0,0,1-1.88-1.11c-.1-.53-.24-1-.3-1.62a8,8,0,0,1,1.11-4.83,3.56,3.56,0,0,1,2.44-1.53,3.44,3.44,0,0,1,.67,0c.67.2,1,.51.86,1.21a3.78,3.78,0,0,1-.4,1.3,9.71,9.71,0,0,1-3.68,3.94l-.32.24a4.85,4.85,0,0,0,.14.79,1,1,0,0,0,1.31.71,6,6,0,0,0,1.65-.66,22.74,22.74,0,0,0,3.6-3.15c1-1.14,2.69-3.4,3.7-4.58ZM23.95,65.66c.09,0,.17-.08.26-.09a9.33,9.33,0,0,0,2.87-2.93,4.33,4.33,0,0,0,.51-1c.19-.44,0-.77-.5-.73a2.93,2.93,0,0,0-.87.2A4,4,0,0,0,24,63.69a4.83,4.83,0,0,0-.27,2C23.86,65.67,23.91,65.71,23.95,65.66Z"/><path class="cls-3" d="M35.26,62c0,1-.29,1.91-.35,3.06l.87-.7a38,38,0,0,0,5.62-5.52,4,4,0,0,1,.71-.86c.08-.06.29-.14.39-.07s.2.33.08.44a4.33,4.33,0,0,1-.43.85C40.85,61,37,64.37,35.33,65.85a4,4,0,0,0-1.12,2.06c-.7,2.85-1.36,5.74-2.2,8.57-.48,1.58-1.09,3.24-1.7,4.85a8.24,8.24,0,0,1-1.17,2.07,4,4,0,0,1-1.22,1.27,1.22,1.22,0,0,1-2-.67,7.06,7.06,0,0,1-.33-2.53A17.83,17.83,0,0,1,26.34,78,24.08,24.08,0,0,1,29,72.63,32.56,32.56,0,0,1,33.22,67a4.35,4.35,0,0,0,1.06-2.14A43,43,0,0,0,34.8,59a2.64,2.64,0,0,0,.15-.66c.09,0,.18,0,.32,0A12.38,12.38,0,0,1,35.26,62Zm-2.65,6.84A35.49,35.49,0,0,0,28.92,74a24.38,24.38,0,0,0-2,4.32,11.57,11.57,0,0,0-.71,3.35,6.47,6.47,0,0,0,.2,1.82.68.68,0,0,0,1.17.42,7.86,7.86,0,0,0,1.13-1,8.71,8.71,0,0,0,.89-1.57c.49-1.27,1-2.5,1.44-3.8.92-2.93,1.61-5.83,2.4-8.74,0-.18.15-.44-.08-.67A5.56,5.56,0,0,0,32.61,68.84Zm3.47-14a13.09,13.09,0,0,1-.55,1.46c0,.09-.19.22-.29.37-.05,0-.25-.14-.27-.22A12,12,0,0,1,35.25,55C35.54,54.33,36,54.7,36.08,54.82Z"/><path class="cls-3" d="M44.79,58c-1.86.25-2.15,1.12-2.91,2.71a12.37,12.37,0,0,0-.63,2.52,3.33,3.33,0,0,0,0,1.17c.12.39.23.5.59.25a3.19,3.19,0,0,0,.66-.62,18,18,0,0,0,2.64-3.66c.59-1.24,1.2-2.39,1.89-3.57.36,0,.48.14.48.41s-.07.6-.06.92c-.25,1.63-.53,3.32-.69,4.93A9.41,9.41,0,0,0,46.65,65a4.19,4.19,0,0,0,.09.75,1.15,1.15,0,0,0,1.8.94c3.41-1.48,7.74-7.58,9.59-11.32l.14-.21c.09,0,.21-.08.31-.06s.12.16.13.2a2.08,2.08,0,0,1-.26.82c-2,3.91-5.21,8.48-8.88,10.74a3.84,3.84,0,0,1-1.77.73,1.07,1.07,0,0,1-1.41-.79,6.43,6.43,0,0,1-.24-2c.07-1.6.27-3.23.48-4.85,0-.23.09-.47.09-.74,0,0-.13,0-.14,0l-.95,1.76A21,21,0,0,1,43,64.77a9.45,9.45,0,0,1-.78.69.89.89,0,0,1-1.5-.5,8.44,8.44,0,0,1,1.78-6.68,3.07,3.07,0,0,1,2.24-1.13,1.2,1.2,0,0,1,.55,0C45.24,57.78,45.19,58,44.79,58Z"/><path class="cls-3" d="M73.46,52.54c-1.3,1.83-1.42,3.89-1.59,6.19a8.78,8.78,0,0,0,.2,1.87,1.07,1.07,0,0,0,.2.6c.4.93.85,1.21,1.61.61a4,4,0,0,0,1.09-1A13.11,13.11,0,0,0,76.77,57c0-.13,0-.27,0-.36a.7.7,0,0,0-.57-.12A2.78,2.78,0,0,1,73.67,53a1.36,1.36,0,0,1,1.64-1.21,2,2,0,0,1,2,1.32c.17.42.21.91.33,1.3a8,8,0,0,1,.06.85,6.57,6.57,0,0,1,.93-.62,16.73,16.73,0,0,0,3.1-3.42c.1-.2.23-.5.62-.34a.56.56,0,0,1,0,.82c-1.17,1.53-2.79,3.59-4.42,4.39a1,1,0,0,0-.49.82,10.66,10.66,0,0,1-1.22,3.26,6.21,6.21,0,0,1-1.59,2.24,2.78,2.78,0,0,1-1.07.6,1.32,1.32,0,0,1-1.74-.82,4.57,4.57,0,0,1-.49-1.41,14.73,14.73,0,0,1,1.28-8.17,4.75,4.75,0,0,1,.54-.78,1.71,1.71,0,0,1,.47-.13A.83.83,0,0,1,73.46,52.54Zm3.29,1.12a1.66,1.66,0,0,0-1.33-1.07A1.05,1.05,0,0,0,74.27,54,2,2,0,0,0,77,55.39,3.9,3.9,0,0,0,76.75,53.66Z"/><path class="cls-3" d="M98.13,55.7a24.87,24.87,0,0,0,1.36-5c-1.16-1.15-1-2.49-.49-3.95a3.75,3.75,0,0,1,.25-.59.6.6,0,0,1,.92.06,3.75,3.75,0,0,1,.18,1c0,.67,0,1.32,0,1.91v1c1.59.75,4.22-1.77,4.7-2.85.17-.3.34-.38.58-.29s.09.48.05.54c-.41,1.21-3.35,3.52-5.42,3.35l-.27,1c-.51,1.41-.88,2.88-1.34,4.33a6.62,6.62,0,0,1-.79,1.41.65.65,0,0,1-1.17-.2,2.64,2.64,0,0,1-.4-1A48.2,48.2,0,0,1,96,47.61a.58.58,0,0,1,.71-.58c0,1.9-.14,5-.06,6.91a7.16,7.16,0,0,0,.55,3A1.86,1.86,0,0,0,98.13,55.7Zm1.5-8.44a2.12,2.12,0,0,0,0,2.27A4.06,4.06,0,0,0,99.63,47.26Z"/><path class="cls-3" d="M106,45.33a.86.86,0,0,1,.34.89c0,.64-.05,1.19-.12,1.79a49.79,49.79,0,0,0-.26,6.26,6,6,0,0,0,.32,1.76c.22.73.7.87,1.36.48a6.22,6.22,0,0,0,.71-.58,30.63,30.63,0,0,0,4.66-6l2.67-4.52c.14-.25.26-.55.59-.47.28.31.1.57-.07.87-.54,1-.54,1-1.1,1.93-.9,1.52-1.77,3-2.73,4.44a24.82,24.82,0,0,1-3.9,4.75,1.91,1.91,0,0,1-1.16.62,1.21,1.21,0,0,1-1.5-.77,7.2,7.2,0,0,1-.46-2.55,51.47,51.47,0,0,1,.46-8.16l.05-.46Zm1.08-7.5a20.3,20.3,0,0,1,.75-2.36c.28-.73.59-1.47.92-2.17.09-.24.28-.46.57-.37s.25.36.12.66c-.45,1-.92,2.16-1.35,3.29-.16.39-.29.87-.44,1.31a5,5,0,0,1-.45.76C107.13,38.36,107,38.07,107.08,37.83Z"/><path class="cls-3" d="M125.2,50.35A19.56,19.56,0,0,1,124,51.89l-.77.77c-.76.55-1.39.34-1.73-.55a4.22,4.22,0,0,1-.24-1c-.13-1.2-.21-2.41-.31-3.71a4.14,4.14,0,0,0-.15-1.56l-.89,1.34c-.52.87-1,1.81-1.6,2.65s-1.17,1.57-1.8,2.33a2.31,2.31,0,0,1-.81.55.83.83,0,0,1-1.23-.55,5.18,5.18,0,0,1-.21-1.41,10.06,10.06,0,0,1,1.3-4.82A6.06,6.06,0,0,1,117,44.28a3,3,0,0,1,3.61-.34.33.33,0,0,0,.23,0c.43-.35.33-.92.39-1.34a39,39,0,0,1,1.37-7.15,35.21,35.21,0,0,1,2.61-7.1,25.91,25.91,0,0,1,1.4-2.3,4.93,4.93,0,0,1,.8-.83.81.81,0,0,1,1.13.47,2.9,2.9,0,0,1,.07,1.62,23,23,0,0,1-.83,3.42,56.71,56.71,0,0,1-3.84,9c-.6,1.2-1.17,2.3-1.82,3.46a3.19,3.19,0,0,0-.49,1.77,29.12,29.12,0,0,0,.14,5.24,3,3,0,0,0,.61,1.84,5.2,5.2,0,0,0,.82-.47c.53-.59,1.1-1.2,1.61-1.88.62-.84,1.24-1.68,1.8-2.55s2.11-3.11,2.7-4.12c.22-.31.33-.65.56-.92s.51,0,.56.35l-.21.35c-.64,1.21-2.43,3.62-3.19,4.89C126.38,48.64,125.82,49.51,125.2,50.35Zm-7.94-.27a26.27,26.27,0,0,0,3-5.17,1.62,1.62,0,0,0-2.06-.35,4.37,4.37,0,0,0-2,1.67,7.74,7.74,0,0,0-1.37,4.65,1.12,1.12,0,0,0,.47,1.09A5.39,5.39,0,0,0,117.25,50.08ZM122,41.6c.1,0,.16.11.29.13l.18-.53a81.22,81.22,0,0,0,4.53-10,14.77,14.77,0,0,0,1-4c0-.37.22-.81-.18-1s-.76.32-.89.57c-.56.92-1.12,1.79-1.6,2.7A42.3,42.3,0,0,0,122,41.1Z"/><path class="cls-3" d="M140.53,40.16c.06.31.17.42.15.56a2,2,0,0,1-.36.79A43.4,43.4,0,0,1,135,47.65c-.67.53-1.36,1-2,1.59a3.74,3.74,0,0,1-1.74.68,1.68,1.68,0,0,1-1.88-1.11c-.1-.53-.24-1-.3-1.62a8,8,0,0,1,1.11-4.83,3.56,3.56,0,0,1,2.44-1.53,3.43,3.43,0,0,1,.67,0c.67.19,1,.51.85,1.21a3.79,3.79,0,0,1-.4,1.3,9.7,9.7,0,0,1-3.68,3.94l-.32.24a4.71,4.71,0,0,0,.14.79,1,1,0,0,0,1.31.71,6.07,6.07,0,0,0,1.65-.66,22.7,22.7,0,0,0,3.6-3.15c1-1.14,2.69-3.4,3.7-4.58Zm-10.67,6.17c.09,0,.17-.08.26-.09A9.33,9.33,0,0,0,133,43.3a4.31,4.31,0,0,0,.51-1c.19-.44,0-.77-.5-.73a2.93,2.93,0,0,0-.87.2A4,4,0,0,0,130,44.36a4.85,4.85,0,0,0-.27,2C129.78,46.34,129.83,46.38,129.86,46.32Z"/><path class="cls-3" d="M141.66,40.09c-1.3,1.83-1.42,3.89-1.59,6.19a8.77,8.77,0,0,0,.2,1.87,1.07,1.07,0,0,0,.2.6c.4.93.86,1.21,1.61.61a4,4,0,0,0,1.09-1,13.15,13.15,0,0,0,1.8-3.82c0-.13,0-.27,0-.36a.7.7,0,0,0-.57-.12,2.78,2.78,0,0,1-2.51-3.54,1.36,1.36,0,0,1,1.64-1.21,2,2,0,0,1,2,1.32c.17.42.21.91.33,1.3a7.92,7.92,0,0,1,.06.85,6.55,6.55,0,0,1,.93-.62,16.71,16.71,0,0,0,3.1-3.42c.1-.2.23-.5.62-.34a.56.56,0,0,1,0,.82c-1.17,1.53-2.79,3.59-4.42,4.39a1,1,0,0,0-.49.81,10.6,10.6,0,0,1-1.22,3.26,6.2,6.2,0,0,1-1.59,2.24,2.77,2.77,0,0,1-1.07.6A1.32,1.32,0,0,1,140,49.7a4.55,4.55,0,0,1-.48-1.41,14.72,14.72,0,0,1,1.28-8.17,4.74,4.74,0,0,1,.54-.78,1.64,1.64,0,0,1,.47-.13A.83.83,0,0,1,141.66,40.09Zm3.29,1.12a1.66,1.66,0,0,0-1.33-1.07,1.05,1.05,0,0,0-1.15,1.39,2,2,0,0,0,2.71,1.41A3.89,3.89,0,0,0,144.95,41.21Z"/></g></svg>